<?xml version="1.0" standalone="no"?>
<!DOCTYPE svg PUBLIC "-//W3C//DTD SVG 1.1//EN" "http://www.w3.org/Graphics/SVG/1.1/DTD/svg11.dtd" >
<svg>
<metadata>
Created by FontForge 20090622 at Thu Apr 20 17:17:48 2017
 By deploy user
Generated by Fontographer 3.3
</metadata>
<defs>
<font id="Souvenir" horiz-adv-x="1229" >
  <font-face 
    font-family="Souvenir"
    font-weight="400"
    font-stretch="normal"
    units-per-em="2048"
    panose-1="2 11 5 0 0 0 0 0 0 0"
    ascent="1638"
    descent="-410"
    x-height="969"
    cap-height="1499"
    bbox="-60 -420 2165 1825"
    underline-thickness="20"
    underline-position="-123"
    unicode-range="U+0020-U+2122"
  />
<missing-glyph horiz-adv-x="1536" 
d="M256 0v1280h1024v-1280h-1024zM1248 32v1216h-960v-1216h960z" />
    <glyph glyph-name=".notdef" horiz-adv-x="1536" 
d="M256 0v1280h1024v-1280h-1024zM1248 32v1216h-960v-1216h960z" />
    <glyph glyph-name=".null" horiz-adv-x="0" 
 />
    <glyph glyph-name="nonmarkingreturn" horiz-adv-x="0" 
 />
    <glyph glyph-name="space" unicode=" " 
 />
    <glyph glyph-name="exclam" unicode="!" horiz-adv-x="615" 
d="M191 97q0 45 31.5 75.5t76.5 30.5q47 0 79 -33t32 -80q0 -44 -34 -75q-33 -32 -77 -32q-47 0 -77 34q-31 32 -31 80zM338 473q-3 -48 -9 -72q-5 -24 -32 -24q-18 0 -26 19t-9.5 37.5t-3.5 50.5l-60 923q0 144 109 144q99 0 99 -138q0 -39 -2 -57z" />
    <glyph glyph-name="quotedbl" unicode="&#x22;" horiz-adv-x="738" 
d="M162 1039l-69 401q0 36 27.5 63t62.5 27q34 0 60.5 -26.5t26.5 -63.5l-67 -401h-41zM533 1039l-68 401q0 36 27 63t61 27q35 0 61.5 -26.5t26.5 -63.5l-67 -401h-41z" />
    <glyph glyph-name="numbersign" unicode="#" 
d="M719 285q-18 -53 -61 -53q-26 0 -43 16t-17 41q0 11 7 33.5t9 30.5l62 181h-299l-72 -217q-16 -47 -28.5 -66t-46.5 -19q-26 0 -44 16.5t-18 42.5q0 13 18 66l60 177h-145q-73 0 -73 58q0 55 70 55h184l109 326h-143q-72 0 -72 57q0 58 68 58h186l84 245q19 58 64 58
q26 0 43.5 -17t17.5 -43q0 -20 -16 -65l-60 -178h299l82 250q22 53 64 53q24 0 40.5 -16.5t16.5 -41.5q0 -19 -16 -63l-62 -182h142q71 0 71 -58q0 -57 -69 -57h-180l-111 -326h141q72 0 72 -55q0 -58 -70 -58h-180zM525 975l-110 -326h300l109 326h-299z" />
    <glyph glyph-name="dollar" unicode="$" 
d="M672 883q133 -55 224 -113t147 -148q57 -90 57 -218q0 -121 -56 -216t-154 -152q-97 -58 -218 -71v-166q0 -44 -9 -62q-8 -18 -40 -18q-35 0 -43 14.5t-8 53.5v178q-169 14 -269 84q-62 45 -111 117q-48 71 -48 137q0 70 59 70q30 0 43 -18q14 -18 23 -52
q33 -122 102 -175t201 -66v659l-27 12q-123 58 -197 106q-73 47 -121.5 123.5t-48.5 190.5q0 104 54.5 192t145.5 140.5t194 58.5v156q0 40 8 58t41 18q35 0 43 -18t8 -58v-156q81 -3 158.5 -36t128.5 -94.5t51 -143.5q0 -36 -17 -64t-51 -28q-67 0 -71 88q0 52 -4 75.5
t-20 39.5q-31 33 -72.5 46t-102.5 23v-567zM570 1446q-111 -6 -189 -72q-80 -67 -80 -176q0 -103 72 -161q70 -59 197 -115v524zM672 60q128 9 214.5 88t86.5 202q0 87 -41 146t-100 94q-58 35 -160 82v-612z" />
    <glyph glyph-name="percent" unicode="%" horiz-adv-x="1680" 
d="M47 1082q0 112 31.5 215t104 171t186.5 68q88 0 151 -40.5t101 -107t55 -146.5q16 -79 16 -160q0 -113 -31 -217q-32 -103 -104.5 -171t-187.5 -68q-114 0 -186.5 68t-103.5 171q-32 104 -32 217zM567 1092q0 388 -196 388q-126 1 -162.5 -118t-36.5 -282q0 -148 41 -273
t158 -125q119 0 157.5 127.5t38.5 282.5zM977 424q0 112 31.5 215.5t104 171.5t186.5 68q88 0 151 -40q63 -42 101 -108.5t54.5 -146t16.5 -160.5t-16.5 -161t-54.5 -146t-101 -106.5t-151 -40.5q-114 0 -186.5 67t-104 170.5t-31.5 216.5zM1497 434q0 390 -196 390
q-126 0 -162.5 -119.5t-36.5 -282.5q0 -148 41 -272.5t158 -124.5q196 0 196 409zM463 64q-27 -44 -39 -57q-11 -13 -45 -13q-43 0 -43 19q0 7 5 17.5t12 21.5t12 20l848 1378q27 42 34.5 49.5t38.5 7.5q45 1 45 -20q0 -13 -20 -45z" />
    <glyph glyph-name="ampersand" unicode="&#x26;" horiz-adv-x="1639" 
d="M1000 350q68 78 123 171.5t55 166.5q0 28 -17.5 42.5t-50.5 27.5t-49 24t-16 33q0 28 18.5 34.5t52.5 6.5h310q82 0 82 -43q0 -34 -52 -51q-66 -28 -92 -55q-31 -39 -88 -142l-201 -286q171 -166 351 -166q31 0 78 9t69 9q16 0 27.5 -10t11.5 -27q0 -42 -82 -79
q-82 -36 -182 -36q-113 0 -208 45.5t-189 131.5q-210 -187 -453 -187q-87 0 -167 26q-81 28 -147 80q-66 53 -102 125q-38 73 -38 163q0 143 97.5 256t245.5 198q-74 99 -113 182t-39 179q0 109 59 189q57 81 152 122t203 41q132 0 226 -67q54 -39 88.5 -99.5t34.5 -124.5
q0 -94 -61 -172.5t-139.5 -131t-195.5 -118.5zM449 738q-240 -136 -240 -342q0 -89 44 -158t119 -106t163 -37q101 0 176 32t166 105zM860 1223q0 97 -67 156.5t-164 59.5q-60 0 -116.5 -24t-93 -70t-36.5 -108q0 -135 156 -336q91 48 156 89.5t115 101t50 131.5z" />
    <glyph glyph-name="quotesingle" unicode="'" horiz-adv-x="328" 
d="M144 1039l-69 401q0 36 27.5 63t61.5 27q35 0 61.5 -26.5t26.5 -63.5l-67 -401h-41z" />
    <glyph glyph-name="parenleft" unicode="(" horiz-adv-x="492" 
d="M410 -324q-23 0 -39.5 8t-27.5 21.5t-24 38l-18 33.5q-225 417 -225 838q0 308 121 614q64 164 135 274q17 27 32.5 37.5t45.5 10.5q49 0 49 -25q0 -7 -33 -84q-190 -393 -190 -829q0 -435 190 -828l21.5 -47t11.5 -37q0 -25 -49 -25z" />
    <glyph glyph-name="parenright" unicode=")" horiz-adv-x="492" 
d="M80 1551q42 0 60.5 -23t48.5 -78q225 -418 225 -837q0 -311 -123 -617q-70 -175 -133 -273q-15 -26 -31 -36.5t-47 -10.5q-49 0 -49 25q0 16 33 84q188 395 188 828q0 217 -47 424t-141 405q-33 58 -33 84q0 25 49 25z" />
    <glyph glyph-name="asterisk" unicode="*" horiz-adv-x="738" 
d="M152 1028q-28 0 -48 22t-20 50q0 68 135 80q125 13 125 41q0 23 -88.5 35t-130 23.5t-41.5 60.5q0 29 19.5 50t48.5 21q39 0 60 -22t70.5 -84t72.5 -62q8 0 8 15q0 32 -33 108.5t-33 96.5q0 30 20.5 51.5t51.5 21.5q33 0 52 -23q20 -23 20 -57q0 -29 -31.5 -101.5
t-31.5 -98.5q0 -17 7 -17q22 0 72 66t70.5 89t58.5 23q28 0 49 -19t21 -48q0 -52 -44 -67t-129 -28t-85 -34q0 -22 85 -35t129 -28.5t44 -67.5q0 -29 -21 -48.5t-49 -19.5q-38 0 -58.5 23t-70.5 89t-72 66q-7 0 -7 -16q0 -25 31.5 -98.5t31.5 -102.5q0 -34 -20 -57t-52 -23
q-30 0 -50 21.5t-20 52.5q0 22 32 98t32 107q0 16 -8 16q-25 0 -80 -73q-45 -56 -65.5 -76.5t-57.5 -20.5z" />
    <glyph glyph-name="plus" unicode="+" horiz-adv-x="1352" 
d="M613 598v467h129v-467h467v-130h-467v-468h-129v468h-469v130h469z" />
    <glyph glyph-name="comma" unicode="," horiz-adv-x="615" 
d="M219 4q-37 37 -37 88q0 30 16 54t41 37.5t56 13.5q72 0 106.5 -55t34.5 -132q0 -91 -42.5 -182t-112.5 -152q-27 -26 -37 -26q-9 0 -18 8.5t-9 19.5q0 9 40 52q41 44 70 89q28 46 28 101q0 37 -10 50t-42 13q-59 0 -84 21z" />
    <glyph glyph-name="hyphen" unicode="-" horiz-adv-x="615" 
d="M133 526q-50 0 -69 9.5t-19 42.5q0 44 16 54.5t72 10.5h349q50 0 69 -8.5t19 -40.5q0 -45 -16 -56.5t-72 -11.5h-349z" />
    <glyph glyph-name="period" unicode="." horiz-adv-x="615" 
d="M196 97q0 45 32.5 75.5t76.5 30.5q48 0 79 -32q32 -33 32 -81q0 -44 -34 -75q-33 -32 -77 -32q-47 0 -77 34q-32 32 -32 80z" />
    <glyph glyph-name="slash" unicode="/" horiz-adv-x="1065" 
d="M955 1489q19 32 36 47q18 15 52 15q55 0 55 -43q0 -15 -6 -31l-928 -1629q-20 -37 -38.5 -54t-51.5 -17q-60 0 -60 47q0 12 8 28z" />
    <glyph glyph-name="zero" unicode="0" 
d="M106 748q0 174 52 356.5t168 307t295 124.5q131 0 232.5 -76t168.5 -200q55 -102 85 -240q28 -139 28 -272q0 -127 -27 -260t-88 -252t-161 -192.5t-238 -73.5q-137 0 -237 73.5t-161 192t-89 253t-28 259.5zM893 342q47 159 47 406q0 261 -51 422q-36 113 -102.5 193.5
t-165.5 80.5q-183 0 -273 -287q-47 -163 -47 -409q0 -254 54 -420q36 -111 101 -189q65 -77 165 -77q103 0 170 81q66 82 102 199z" />
    <glyph glyph-name="one" unicode="1" 
d="M756 281q0 -76 9 -109t41 -48q33 -16 104 -19q55 -3 90 -12q34 -8 34 -40q0 -33 -18 -43t-59 -10h-592q-84 0 -84 47q0 18 15 29t36 16q22 5 46 7q25 2 40 4q72 6 105 24.5t40.5 52.5t7.5 109v854q0 82 -16 111q-32 39 -151 39l-109 -5q-67 0 -67 43q0 18 10.5 28
t27 14.5t36.5 6.5t32 3q171 12 305 110q3 2 21 16q18 15 30.5 21t26.5 6q39 0 39 -84v-1171z" />
    <glyph glyph-name="two" unicode="2" 
d="M197 0q-41 0 -62.5 9t-21.5 42q0 35 62.5 134t109.5 159l315 342q99 96 160.5 163t110.5 153q48 87 48 176q0 73 -36 133q-38 59 -101.5 92.5t-136.5 33.5q-121 0 -221 -71q-40 -31 -70 -77q-30 -45 -30 -89q0 -27 5 -40q6 -14 24 -42q4 -7 13 -20.5t13 -23t4 -21.5
q0 -39 -28.5 -59.5t-69.5 -20.5q-59 0 -94 47.5t-35 110.5q0 157 143 282q141 123 361 123q180 0 303 -88q151 -111 151 -291q0 -106 -52.5 -200.5t-126 -165.5t-187.5 -164q-157 -127 -262 -235t-172 -240h440q80 0 115.5 4.5t68.5 25.5t78 70q42 47 72 47q15 0 25 -10.5
t10 -26.5q0 -28 -27 -79q-24 -54 -33 -99q-9 -39 -21 -57t-34 -22q-21 -5 -70 -5h-741z" />
    <glyph glyph-name="three" unicode="3" 
d="M484 750q-76 4 -76 53q0 23 21 33.5t48.5 13t53.5 4.5q95 8 152.5 25t109.5 67q83 84 83 232q0 79 -39.5 138.5t-106.5 89.5q-68 31 -146 31q-92 0 -158 -41q-67 -43 -67 -128q0 -16 5 -45t5 -41q0 -30 -25 -45.5t-57 -15.5q-49 0 -81 29t-32 77q0 101 109 195
q69 55 161 84.5t187 29.5q86 0 164 -24.5t140.5 -72.5t99.5 -120q36 -71 36 -160q0 -128 -92 -214.5t-227 -125.5q74 -14 143.5 -47.5t124 -84.5t87 -118t32.5 -145q0 -100 -45 -190q-47 -90 -127 -152q-145 -112 -381 -112q-73 0 -156 17q-83 18 -157 56t-120 98
q-46 61 -46 142q0 46 25 75t71 29q44 0 60 -23t20 -71q8 -117 88 -174q81 -57 203 -57q166 0 260 86q50 47 78 120t28 148q0 91 -38 164q-37 73 -107 116t-162 48z" />
    <glyph glyph-name="four" unicode="4" 
d="M905 237q0 -65 13 -98q8 -19 20 -26.5t39 -13.5q37 -9 52 -17q16 -8 16 -37q0 -45 -68 -45h-323q-68 0 -68 43q0 35 47 43q60 11 73.5 33.5t13.5 97.5v182h-550q-61 0 -87 11q-25 11 -25 47q0 64 54 194q55 131 105 222q140 250 324 446l178 166q34 29 54.5 40t54.5 11
q51 0 64 -31.5t13 -91.5v-897h191q46 0 65 -10.5t19 -50.5q0 -35 -18 -45.5t-56 -10.5h-201v-162zM720 1344q-175 -173 -308.5 -383.5t-214.5 -446.5h523v830z" />
    <glyph glyph-name="five" unicode="5" 
d="M326 850q147 88 315 88q143 0 256 -52q114 -52 179 -154.5t65 -245.5q0 -108 -46 -209.5t-128 -171.5q-158 -135 -412 -135q-179 0 -309 77q-62 37 -103 96q-42 60 -42 128q0 45 26 70q26 26 72 26q35 0 60.5 -18t25.5 -52q0 -9 -3 -28q-3 -18 -3 -27q0 -90 81.5 -133
t180.5 -43q125 0 215 49q91 49 138.5 141.5t47.5 216.5q0 104 -36 187.5t-108.5 131t-178.5 47.5q-94 0 -155 -29q-62 -28 -127.5 -74t-92.5 -46q-26 0 -35 19q-8 18 -8 63l47 764l322 -26l313 16q51 10 82 10q45 0 45 -37q0 -66 -166 -112q-147 -37 -367 -38h-118z" />
    <glyph glyph-name="six" unicode="6" 
d="M717 916q125 0 221.5 -55.5t149.5 -154t53 -222.5q0 -144 -65 -262t-181 -185t-262 -67q-269 0 -416 194q-117 154 -117 447q0 126 28 244q27 119 85.5 226t145.5 195q68 72 165 132t204 94t208 34q64 0 64 -43q0 -40 -103 -47q-132 -17 -240.5 -79.5t-185.5 -158.5
t-121 -216t-53 -252q90 82 198 129t222 47zM344 285q36 -96 116 -157q79 -60 179 -60t177 65t106 162q6 23 15 82.5t9 81.5q0 94 -32 174q-33 81 -99.5 129.5t-162.5 48.5q-192 0 -357 -190q0 -216 49 -336z" />
    <glyph glyph-name="seven" unicode="7" 
d="M443 1349q-105 0 -151.5 -20.5t-57.5 -107.5q-8 -62 -49 -62q-27 0 -34.5 22t-7.5 58l4 88q1 133 17 154q16 18 86 18h782q43 0 57.5 -6t14.5 -26q0 -14 -37 -105l-454 -1227l-31 -94t-41 -73.5t-76 -27.5q-36 0 -69.5 17t-33.5 49q0 26 15 54l563 1289h-497z" />
    <glyph glyph-name="eight" unicode="8" 
d="M1145 410q0 -95 -47 -181.5t-127 -146.5q-152 -112 -379 -112q-122 0 -234 41q-113 39 -186.5 123.5t-73.5 207.5q0 143 111 247q109 103 264 165q-301 139 -301 373q0 85 41 164q42 79 113 133q144 112 336 112q98 0 201 -37.5t172 -112.5q69 -74 69 -177
q0 -125 -89.5 -212t-236.5 -163q104 -41 185.5 -98.5t131.5 -139.5t50 -186zM248 340q0 -60 32.5 -117.5t86.5 -95.5q85 -57 231 -57q89 0 178.5 33t148.5 98q58 66 58 156q0 76 -41 132q-40 57 -102 94q-62 38 -130 66l-155 64q-134 -58 -220.5 -151t-86.5 -222zM954 1180
q0 79 -43 138q-45 59 -116.5 90t-147.5 31q-78 0 -154 -32.5t-125 -93.5q-48 -61 -48 -141q0 -83 57.5 -141t122.5 -87t188 -73q266 144 266 309z" />
    <glyph glyph-name="nine" unicode="9" 
d="M529 592q-128 0 -224.5 55t-147.5 154q-53 100 -53 225q0 145 67 262t185 182.5t265 65.5q121 0 224 -48t177 -140q119 -157 119 -449q0 -126 -27 -243.5t-84 -224.5q-56 -107 -141 -195q-110 -116 -269 -191.5t-313 -75.5q-73 0 -73 44q0 19 12 25q11 7 35 11
q154 20 270.5 76t198 146.5t129.5 213t63 273.5q-203 -166 -413 -166zM944 922q0 77 -12 171t-37 148q-37 84 -117 140t-169 56q-73 0 -134.5 -34.5t-105.5 -95.5q-70 -93 -70 -246q0 -151 75 -262t220 -111q195 0 350 187v47z" />
    <glyph glyph-name="colon" unicode=":" horiz-adv-x="615" 
d="M196 97q0 45 32.5 75.5t76.5 30.5q48 0 79 -32q32 -33 32 -81q0 -44 -34 -75q-33 -32 -77 -32q-47 0 -77 34q-32 32 -32 80zM196 697q0 45 33 76q31 30 76 30q48 0 79 -32q32 -33 32 -81q0 -43 -34 -75q-33 -31 -77 -31q-47 0 -77 33q-32 32 -32 80z" />
    <glyph glyph-name="semicolon" unicode=";" horiz-adv-x="615" 
d="M192 697q0 45 32.5 75.5t78.5 30.5q47 0 78 -32t31 -81q0 -44 -33 -75t-78 -31q-47 0 -77 33q-32 32 -32 80zM219 4q-37 37 -37 88q0 30 16 54t41 37.5t56 13.5q72 0 106.5 -55t34.5 -132q0 -91 -42.5 -182t-112.5 -152q-27 -26 -37 -26q-9 0 -18 8.5t-9 19.5q0 9 40 52
q41 44 70 89q28 46 28 101q0 37 -10 50t-42 13q-59 0 -84 21z" />
    <glyph glyph-name="less" unicode="&#x3c;" horiz-adv-x="1352" 
d="M1250 -47l-1136 518v119l1136 522v-133l-988 -450l988 -445v-131z" />
    <glyph glyph-name="equal" unicode="=" horiz-adv-x="1352" 
d="M1209 754v-130h-1066v130h1066zM1209 441v-130h-1066v130h1066z" />
    <glyph glyph-name="greater" unicode="&#x3e;" horiz-adv-x="1352" 
d="M1090 529l-988 450v133l1135 -522v-119l-1135 -518v131z" />
    <glyph glyph-name="question" unicode="?" horiz-adv-x="942" 
d="M277 97q0 44 32 75q33 31 78 31q47 0 78 -32t31 -81q0 -45 -33 -75q-33 -32 -78 -32q-47 0 -77 34q-31 32 -31 80zM324 666q0 39 4.5 53t13.5 18.5t62 28.5q83 40 127.5 68t87.5 78q96 112 96 258q0 130 -71 213q-71 84 -199 84q-86 0 -148 -41q-32 -20 -43.5 -47.5
t-11.5 -81.5q0 -64 -8 -78q-24 -33 -72 -33q-84 0 -84 88q0 107 96 182q121 95 299 95q118 0 210 -47q91 -46 142.5 -134t51.5 -206q0 -93 -33.5 -183t-93.5 -157q-53 -59 -111 -91q-57 -33 -173 -86q-34 -19 -39 -32q-15 -37 -15 -146q0 -90 -47 -90q-43 0 -43 68
q0 9 1 22.5t1 18.5v178z" />
    <glyph glyph-name="at" unicode="@" horiz-adv-x="1680" 
d="M1059 553q-39 -115 -39 -135q0 -26 22 -40q21 -13 48 -13q75 0 148.5 51.5t129.5 126.5q54 70 73 151.5t19 192.5q0 135 -54.5 241t-141.5 174q-87 69 -188 103t-193 34q-144 0 -268 -51t-214.5 -145.5t-140 -224t-49.5 -280.5q0 -190 86 -346q85 -155 235 -244
q149 -88 330 -88q197 0 353 90t241 264h73q-47 -104 -116.5 -187.5t-154.5 -139.5t-186.5 -86.5t-211.5 -30.5q-198 0 -368 103.5t-270.5 281t-100.5 385.5q0 215 101.5 397.5t276.5 287.5t382 105q129 0 250.5 -46.5t216.5 -133.5t149 -204.5t54 -256.5q0 -215 -140 -391
q-45 -57 -104 -103t-126.5 -73t-135.5 -27q-65 0 -97 37.5t-32 120.5q-135 -146 -281 -146q-109 0 -171.5 76.5t-62.5 192.5q0 140 63.5 288t177 245.5t251.5 97.5q146 0 207 -125l35 94h155zM928 625q44 89 79 192q36 102 36 172q0 62 -28.5 104t-84.5 42q-80 0 -150.5 -64
t-122.5 -164t-81 -206t-29 -181q0 -63 31 -103t90 -40q65 0 112.5 35t76.5 83q30 47 71 130z" />
    <glyph glyph-name="A" unicode="A" horiz-adv-x="1475" 
d="M169 385l442 1016l25 47q14 25 27 45q13 21 26 34t24 13q25 0 56 -45t59 -94q66 -112 128 -239q63 -126 118.5 -256t104 -261t89.5 -260l80 -221q12 -30 25.5 -43t46.5 -31q34 -17 34 -45q0 -29 -22 -37t-60 -8h-254q-74 0 -74 47q0 26 26.5 39.5l52.5 26.5t26 41
q0 25 -42 148t-66 183l-15 39h-665q-7 -25 -35 -102t-44.5 -132t-16.5 -87q0 -54 19 -73.5t55 -40t36 -44.5q0 -47 -76 -47q-10 0 -26 1t-21 1h-119q-4 0 -19 -1t-24 -1q-91 0 -91 49q0 27 33 50q28 18 40 34q13 15 24 43zM993 631l-22 51l-283 617l-295 -668h600z" />
    <glyph glyph-name="B" unicode="B" horiz-adv-x="1393" 
d="M133 0q-33 0 -52 9t-19 38q0 23 13 32.5t38 17.5q38 11 53 23.5t18.5 31.5t3.5 65v1139q0 20 -16 27.5t-51 17.5q-31 8 -45 17.5t-14 33.5q0 47 75 47h666q186 0 281 -59q69 -42 109 -110t40 -146q0 -87 -48.5 -158t-122.5 -121t-161 -84q112 -17 213 -71t163.5 -142
t62.5 -202q0 -95 -49 -175q-50 -79 -134 -134q-143 -97 -383 -97h-641zM373 776q137 31 210 49q71 18 158.5 50.5t143.5 72.5q60 44 98 103t38 123q0 101 -57.5 149.5t-136.5 59.5t-196 11q-172 1 -221 -24q-37 -23 -37 -98v-47v-449zM373 264q0 -66 7.5 -95t35.5 -44
q45 -22 199 -22q223 0 346 61q76 37 121.5 100.5t45.5 145.5q0 146 -113.5 232t-272.5 114l-369 -94v-398z" />
    <glyph glyph-name="C" unicode="C" horiz-adv-x="1475" 
d="M1403 1125q0 -70 -51 -70q-15 0 -26.5 13t-20 31.5l-15.5 33.5q-38 78 -70.5 124t-88.5 87q-115 81 -264 81q-250 0 -422 -212q-162 -199 -162 -459q0 -117 33 -242.5t94 -212.5q151 -213 444 -213q129 0 230.5 49.5t201.5 149.5q7 6 21 22q15 16 28 24.5t29 8.5
q20 0 32.5 -14t12.5 -35q0 -44 -73 -112t-132 -103q-80 -51 -181 -79q-100 -28 -202 -28q-151 0 -288 54q-136 54 -239 151q-103 98 -162 231t-59 287q0 165 61 317q62 152 171.5 269.5t256 184.5t313.5 67q205 0 391 -96q97 -56 113 -78q21 -31 24 -84v-147z" />
    <glyph glyph-name="D" unicode="D" horiz-adv-x="1516" 
d="M555 1499q136 0 233 -8.5t192.5 -41.5t185.5 -99q284 -212 284 -604q0 -154 -54.5 -294t-160.5 -247q-78 -78 -167 -123.5t-187 -63.5q-97 -18 -217 -18h-531q-34 0 -54 9q-19 9 -19 38q0 23 13 32.5t38 17.5q49 14 61 35q10 20 10 85v1139q0 21 -15.5 28t-50.5 17
q-30 11 -42 19.5t-12 31.5q0 47 71 47h422zM367 361q0 -122 11 -170q12 -48 57.5 -67t156.5 -19q148 0 269 43t205 126q85 82 129.5 201t44.5 269q0 142 -44 273q-46 131 -137 220q-160 157 -491 157q-95 0 -136 -17t-53 -59q-12 -41 -12 -134v-823z" />
    <glyph glyph-name="E" unicode="E" 
d="M365 353q0 -93 11.5 -144t50.5 -77q39 -25 118 -25h307q73 0 130.5 28t117.5 84q29 27 44 39.5t32 12.5q15 0 24 -10t9 -25q0 -17 -3 -37t-10 -57t-8 -39q-10 -60 -16 -76q-5 -17 -21 -21.5t-65 -5.5h-955q-33 0 -52 9t-19 38q0 23 12 33q13 9 37 17q49 14 60 34.5
t11 85.5v1082q0 45 -12 71q-13 27 -53 33q-29 9 -42 18t-13 33q0 29 19 37q20 8 54 8h908q61 -14 73 -98l17 -125q-3 -33 -35 -33q-22 0 -35 17q-44 56 -107 94t-126 38h-330q-73 0 -103 -33.5t-30 -125.5v-373h394q49 0 78 8q30 7 58 33q27 27 45 27q43 0 43 -94
q0 -13 -1 -32q-1 -18 -1 -21q0 -50 -9 -70.5t-40 -20.5q-19 0 -45 27q-28 25 -50.5 30.5t-68.5 5.5h-403v-400z" />
    <glyph glyph-name="F" unicode="F" horiz-adv-x="1147" 
d="M367 821h424q48 0 70 7q23 6 55 32q28 25 47 25q47 0 47 -86q0 -15 -2 -38t-2 -28q-4 -43 -9 -63.5t-30 -20.5q-24 0 -49 25q-32 29 -54 35t-73 6h-426l2 -569q0 -21 14 -28.5t50 -18.5q29 -8 44 -17.5t15 -34.5q0 -29 -20.5 -38t-55.5 -9h-279q-73 0 -73 47q0 23 12 33
q13 9 37 17q40 14 53 25t14.5 23.5t3.5 71.5v1139q0 21 -15.5 28t-50.5 17q-31 12 -44 21q-12 8 -12 32q0 29 19 37q20 8 54 8h908q72 -11 90 -94l24 -127q-7 -33 -30 -33q-17 0 -60 43q-99 104 -244 104h-335q-119 0 -119 -54v-517z" />
    <glyph glyph-name="G" unicode="G" horiz-adv-x="1557" 
d="M1276 752q126 0 180 -14q33 -9 33 -43l-4 -46l-18 -231q0 -100 16 -176q4 -20 4 -35q0 -71 -201 -156q-207 -81 -399 -81q-103 0 -204 19q-102 20 -195 62.5t-168 108.5q-121 106 -182.5 253t-61.5 312q0 224 108 408.5t294 290.5t409 106q107 0 228 -26.5t206 -73.5
q51 -29 70.5 -57.5t22 -55.5t3.5 -117q0 -58 -6.5 -81t-29.5 -23q-24 0 -48 45q-62 143 -151 203q-127 81 -299 81q-139 0 -251.5 -59t-189.5 -160t-117 -229q-40 -127 -40 -260q0 -265 160 -446q83 -94 201 -145.5t247 -51.5q81 0 168.5 21t140.5 63q61 48 78 122
q17 75 17 181q0 87 -13 123q-13 37 -50 50t-126 18q-69 0 -112 12q-27 10 -27 45q0 27 27 37q26 6 141 6h139z" />
    <glyph glyph-name="H" unicode="H" horiz-adv-x="1639" 
d="M369 146q0 -14 10 -23t25.5 -14l30.5 -10q29 -10 42 -19t13 -33q0 -29 -20 -38q-19 -9 -54 -9h-283q-33 0 -53 9t-20 38q0 23 13 33q14 9 40 17q49 14 61 35q10 20 10 85v1137q0 22 -16 29.5t-49 17.5q-33 12 -46 20.5t-13 32.5q0 30 20 37.5t55 7.5h283q72 0 72 -45
q0 -23 -11.5 -32t-37.5 -19q-52 -17 -61 -36q-11 -20 -11 -85v-413h886v487q0 30 -67 45q-31 11 -44 20t-13 33q0 45 71 45h291q72 0 72 -45q0 -36 -51 -51q-37 -11 -51.5 -22.5t-18.5 -32t-4 -66.5v-1118q0 -22 8.5 -33.5t30.5 -21.5l22 -10l19 -11q27 -13 36 -19t9 -22
q0 -29 -19 -38t-53 -9h-289q-34 0 -54 9q-19 9 -19 38q0 23 13 32.5t38 17.5q51 14 62 34.5t11 85.5v545h-886v-616z" />
    <glyph glyph-name="I" unicode="I" horiz-adv-x="533" 
d="M176 1356q0 21 -16 28t-49 17q-32 12 -45 21t-13 32q0 30 19.5 37.5t54.5 7.5h283q72 0 72 -45q0 -23 -11 -32t-39 -19q-38 -12 -52 -23.5t-16 -27.5q-2 -15 -3 -70v-1136q0 -14 10 -23t25.5 -14l30.5 -10q28 -10 41 -19q14 -9 14 -33q0 -29 -20 -38q-19 -9 -54 -9h-283
q-34 0 -54 9t-20 38q0 22 14 32t40 18q49 14 60 34.5t11 85.5v1139z" />
    <glyph glyph-name="J" unicode="J" horiz-adv-x="983" 
d="M626 1356q0 29 -69 45q-31 9 -45 18.5t-14 34.5q0 29 19 37q20 8 55 8h286q35 0 54.5 -7.5t19.5 -37.5q0 -23 -12.5 -33t-38.5 -18q-34 -11 -48 -22q-13 -11 -17.5 -31.5t-4.5 -67.5v-811q0 -241 -78 -348q-55 -76 -149 -115t-195 -39q-99 0 -188 37q-89 38 -144 110
q-55 73 -55 173q0 61 26.5 119.5t76 95.5t112.5 37q36 0 63 -22t27 -58q0 -34 -19.5 -48.5t-59.5 -25.5q-4 -1 -25 -7t-32.5 -12.5t-20.5 -17.5q-31 -33 -31 -81q0 -88 76.5 -140.5t169.5 -52.5q136 0 207 96q54 72 54 254v930z" />
    <glyph glyph-name="K" unicode="K" horiz-adv-x="1434" 
d="M371 146q0 -15 9.5 -23.5t25.5 -13.5l31 -10q28 -11 40 -19q13 -9 13 -33q0 -29 -20 -38t-54 -9h-283q-34 0 -54 9q-19 9 -19 38q0 23 13 33q14 9 40 17q51 14 62 34.5t11 85.5v1139q0 29 -65 45q-33 11 -46 20t-13 33q0 45 71 45h281q74 0 74 -45q0 -22 -10 -30t-39 -21
q-39 -17 -51 -27t-14 -24.5t-3 -69.5v-596l349 330l185 193l39 42q23 26 38 51q16 25 16 46q0 25 -14 36.5t-41.5 21t-40.5 20.5t-13 34q0 27 17.5 33t48.5 6h301q77 0 77 -39q0 -34 -47 -53q-59 -28 -90.5 -56.5t-85.5 -92.5l-338 -361l52 -53q317 -342 444 -612
q28 -59 48 -86q20 -26 65 -43q30 -12 44.5 -22.5t14.5 -37.5q0 -43 -72 -43h-266q-96 0 -96 47q0 18 10 27t30 19t31 21t11 32q0 54 -84.5 182t-193.5 262t-167 188l-272 -247v-385z" />
    <glyph glyph-name="L" unicode="L" 
d="M373 238q0 -6 -1 -20t-1 -21q0 -46 22 -64q14 -9 36.5 -15t50 -8t53.5 -3t41 -2h110l226 12q78 12 115 26q37 15 93 58q2 1 19.5 15t31.5 22t25 8q35 0 35 -41q0 -15 -14 -82t-21 -82q-13 -26 -38 -33.5t-66 -7.5h-946q-34 0 -53 9t-19 38q0 23 11 31.5t36 18.5
q49 18 59 36.5t10 83.5v1139q0 21 -19.5 30t-47.5 15q-31 8 -45 18t-14 35q0 30 19 37.5t54 7.5h279q35 0 54 -7q20 -8 20 -38q0 -23 -11 -30q-10 -8 -38 -19q-43 -16 -54.5 -29.5t-11.5 -48.5v-43v-1046z" />
    <glyph glyph-name="M" unicode="M" horiz-adv-x="1762" 
d="M1092 942l198 471q18 45 31 66q14 20 45 20h264q31 0 44 -9q14 -9 14 -42q0 -31 -55 -45q-54 -13 -68 -32q-16 -18 -16 -74v-1151q0 -11 7.5 -19t17.5 -13q10 -4 25.5 -8.5t25.5 -6.5q32 -9 46 -17q15 -8 15 -35q0 -29 -20 -38q-19 -9 -54 -9h-276q-72 0 -72 47
q0 23 10.5 31.5t36.5 18.5q37 14 48 25.5t11 35.5q0 5 -1 24.5t-1 34.5v1073l-295 -688l-153 -317q-44 -90 -76 -90q-21 0 -34 16q-12 15 -27 45l-220 469l-200 496l-41 102v-1169q2 -13 9.5 -22t16.5 -14t22.5 -9.5l27.5 -9.5q32 -11 48.5 -21t16.5 -37q0 -41 -55 -41h-246
q-37 0 -55.5 8t-18.5 37q0 23 12 32.5t37 19.5q32 12 45 22t16 25.5t3 54.5v1130q0 52 -18.5 62t-66.5 22q-48 13 -48 41q0 45 55 45h273q23 0 38 -17t26 -44.5l19 -46.5l386 -920z" />
    <glyph glyph-name="N" unicode="N" horiz-adv-x="1516" 
d="M1212 1247q0 80 -3 105q-4 22 -17.5 31t-38.5 16q-38 12 -52 21q-13 8 -13 34q0 45 55 45h252q59 0 59 -47q0 -29 -51 -47q-36 -15 -48 -21.5t-17 -23.5q-5 -20 -5 -100v-1182q0 -60 -8 -84.5t-39 -24.5q-28 0 -57 60q-31 62 -75 131.5t-105 157.5q-62 89 -94 139
l-334.5 501t-284.5 347v-1104q0 -47 10 -67q10 -19 52 -31q34 -8 49.5 -17t15.5 -39q0 -47 -53 -47h-279q-53 0 -53 47q0 38 49 50q57 11 72.5 29t15.5 59v59v1006q0 75 -15 113t-75 50q-37 10 -50 17t-13 30q0 39 59 39h236q37 0 171 -159.5t248 -311.5l104 -139
q121 -159 332 -504v862z" />
    <glyph glyph-name="O" unicode="O" horiz-adv-x="1639" 
d="M277 187q-201 211 -201 555q0 161 51 304t148 252.5t233 170.5t301 61q154 0 293 -58q140 -58 244 -167q71 -73 118 -164q47 -90 68 -190t21 -207q0 -217 -96.5 -394.5t-270.5 -279t-391 -101.5q-98 0 -191 24q-93 25 -176 73.5t-151 120.5zM1217 293q126 177 126 440
q0 132 -31 256q-30 125 -97 218q-72 100 -179 157q-106 57 -227 57q-126 0 -232 -64t-175 -175q-117 -180 -117 -438q0 -269 127 -453q70 -101 172 -158t221 -57q123 0 230 57.5t182 159.5z" />
    <glyph glyph-name="P" unicode="P" horiz-adv-x="1270" 
d="M367 144q0 -30 72 -45q30 -8 45 -17q16 -10 16 -35q0 -29 -20 -38t-54 -9h-286q-35 0 -55 9q-19 9 -19 38q0 23 11 31q11 9 38 19q46 17 56.5 36t10.5 84v1139q0 21 -15.5 28t-50.5 17q-29 9 -43 18q-13 9 -13 33q0 47 71 47h533q115 0 204 -14t166 -55
q98 -49 150.5 -132t52.5 -192q0 -94 -42.5 -177t-114 -146.5t-158.5 -106.5q-116 -57 -252.5 -79t-302.5 -24v-429zM367 680q157 0 307.5 39.5t252.5 130.5q100 91 100 236q0 75 -35.5 138.5t-98.5 104.5q-59 38 -129 50q-70 13 -160 13q-133 1 -184 -26q-35 -19 -44 -48.5
t-9 -82.5v-555z" />
    <glyph glyph-name="Q" unicode="Q" horiz-adv-x="1639" 
d="M793 -31q-94 0 -188 27.5t-178 79.5t-148 121q-100 109 -153 252t-53 297q0 156 54.5 298.5t154.5 252.5t235 171.5t294 61.5q160 0 297 -57.5t236 -161.5q100 -105 154.5 -244.5t54.5 -300.5q0 -172 -64.5 -328t-186 -270.5t-286.5 -165.5q152 -142 324 -142q23 0 68 6
q45 7 71 7q30 0 46 -20t16 -50q0 -48 -49 -69q-48 -22 -103 -22q-137 0 -267 74.5t-223 188.5zM789 293q0 80 47 80q27 0 34 -21q7 -20 13 -61q18 -126 65 -207q133 44 222 147t131 239t42 278q0 161 -58 318t-176 259q-118 100 -285 100q-175 0 -297.5 -100.5
t-182.5 -260.5q-61 -159 -61 -329q0 -123 36 -242q35 -118 106 -215t177 -155q106 -57 240 -57q-53 133 -53 227z" />
    <glyph glyph-name="R" unicode="R" horiz-adv-x="1393" 
d="M371 144q0 -14 9.5 -22.5t23 -13t31.5 -9.5q32 -15 42.5 -22t10.5 -32q0 -29 -20 -37t-56 -8h-275q-33 0 -53 8.5t-20 36.5q0 24 11.5 32.5t39.5 19.5q39 12 52.5 23.5t15.5 27t3 69.5v1137q0 22 -16 29q-16 8 -51 18q-31 8 -45 17.5t-14 33.5q0 30 19 39q20 8 54 8h637
q198 0 305 -71q74 -46 114 -118q40 -71 40 -155q0 -96 -46.5 -173t-121.5 -133t-168 -97q96 -109 170 -239q73 -129 152 -302q25 -55 44 -78t62 -43q30 -12 41.5 -19.5t11.5 -29.5q0 -26 -19 -33.5t-50 -7.5h-303q-82 0 -82 43q0 22 12 32t38.5 22t40.5 25q12 12 12 38
q0 51 -57.5 159.5t-135.5 220.5t-127 163l-332 -60v-499zM371 750q187 30 253 43t165.5 52t164.5 109.5t65 176.5q0 261 -427 261q-147 1 -184 -26q-24 -16 -31 -48q-6 -32 -6 -79v-489z" />
    <glyph glyph-name="S" unicode="S" 
d="M738 867q206 -48 295 -117q69 -55 107 -136q38 -80 38 -171q0 -100 -45.5 -191t-124.5 -155q-157 -128 -408 -128q-233 0 -379 105q-65 50 -120 122q-56 73 -56 138q0 27 15 46q14 20 41 20q37 0 69 -56q76 -133 158 -186q126 -82 297 -82q98 0 189.5 36.5t148.5 108.5
t57 175q0 143 -109.5 198.5t-339.5 107.5q-231 53 -350 133t-119 263q0 90 41 171.5t113 141.5q138 119 367 119q65 0 131 -11t130 -34t116 -55q36 -23 45 -51q6 -25 6 -119q0 -72 -33 -72q-16 0 -62 50.5t-84 85.5t-116.5 68t-183.5 33q-75 0 -142.5 -31t-109 -88.5
t-41.5 -131.5q0 -114 73.5 -173.5t199.5 -90.5z" />
    <glyph glyph-name="T" unicode="T" horiz-adv-x="1311" 
d="M746 146q0 -20 16 -28.5t50 -18.5q29 -10 43 -19t14 -33q0 -29 -20 -38q-19 -9 -54 -9h-285q-74 0 -74 47q0 22 14 32t40 18q49 14 60 34.5t11 85.5v1051q0 76 -15 102q-15 24 -75 24q-74 0 -170 -20q-58 -12 -92 -33q-34 -20 -92 -69l-20.5 -19t-22.5 -17q-11 -7 -23 -7
q-41 0 -41 47q0 12 3 26t4 21q2 24 7.5 67t17.5 76t34 33h1137q31 -4 39 -12q20 -22 38 -156q9 -30 9 -53q0 -43 -37 -43q-22 0 -68 41q-55 44 -83 62t-79 32q-79 24 -176 24q-53 0 -77 -13q-23 -15 -28 -41t-5 -84v-1110z" />
    <glyph glyph-name="U" unicode="U" horiz-adv-x="1557" 
d="M355 662q0 -94 4 -158.5t22 -132t55 -121.5q59 -86 156 -129q98 -43 193 -43q77 0 151.5 20t137.5 62t102 104q54 89 69 194q13 105 13 261v569q0 40 -26.5 71t-61.5 44q-31 12 -45.5 22t-14.5 31q0 39 60 43h272q53 -3 53 -47q0 -20 -12 -28.5t-39 -20.5
q-42 -16 -54.5 -36t-12.5 -70v-596q0 -177 -23.5 -297.5t-106.5 -223.5q-85 -104 -222 -158q-138 -53 -285 -53q-115 0 -236 46q-121 47 -201 139q-82 97 -107.5 216t-25.5 284v679q0 33 -11.5 44t-45.5 26q-30 11 -41 19q-12 9 -12 32q0 29 19 37q20 8 54 8h269
q73 0 73 -45q0 -23 -12 -32t-39 -17q-35 -10 -49 -22t-17 -32q-3 -19 -3 -67v-622z" />
    <glyph glyph-name="V" unicode="V" horiz-adv-x="1434" 
d="M1374 1499q50 0 50 -41q0 -23 -37 -55q-33 -27 -47 -67l-65 -230q-73 -253 -206 -572q-133 -318 -262 -499q-62 -88 -100 -88t-78 57q-92 134 -169 289t-144 330q-127 330 -207 678q-13 56 -30 74q-16 17 -46.5 37.5t-30.5 45.5q0 41 66 41h293q63 0 63 -45
q0 -28 -43 -47q-48 -24 -63 -40.5t-15 -61.5q0 -90 56.5 -272.5t115.5 -331.5q116 -288 263 -537q73 114 132 243.5t119 289.5q183 483 183 618q0 44 -17 56t-66 36q-50 25 -50 51q0 41 59 41h276z" />
    <glyph glyph-name="W" unicode="W" horiz-adv-x="1925" 
d="M1839 1499q68 0 68 -36q0 -12 -6 -22t-15 -17t-18 -15q-33 -25 -44 -51q-10 -26 -17 -80l-67 -327.5t-72 -320.5t-88 -302t-117 -293q-20 -44 -36 -66q-15 -22 -44 -22q-21 0 -44 27q-23 28 -39 59l-30 59q-171 338 -328 854q-86 -319 -196 -639q-62 -179 -135 -292
q-23 -38 -36 -53q-12 -15 -38 -15q-15 0 -26 9q-10 8 -18 21.5t-16 28.5q-72 141 -138 332.5t-116 389.5q-50 199 -83 378l-35 189q-10 54 -18.5 71.5t-45.5 40.5q-39 27 -39 51q0 41 68 41h274q68 0 68 -41q0 -24 -42 -44.5t-60.5 -36t-18.5 -66.5q0 -141 98 -524
q40 -151 80 -279t101 -307q148 375 198 541q44 146 83.5 319t39.5 262q0 38 -13 55q-14 18 -45 34q-30 15 -39 22.5t-9 30.5q0 16 15 25t34 9h268q59 0 59 -39q0 -24 -37.5 -46t-55 -39t-17.5 -68q0 -151 141 -582q48 -153 98 -279q51 -126 115 -237q140 363 221 762
q32 152 45 220t13 120q0 53 -20 67q-20 15 -66.5 35t-46.5 47q0 39 49 39h239z" />
    <glyph glyph-name="X" unicode="X" horiz-adv-x="1434" 
d="M649 623q-94 -121 -203 -276q-108 -155 -108 -203q0 -28 23 -40l46 -25q23 -12 23 -40q0 -25 -17.5 -32t-47.5 -7h-262q-40 0 -63.5 7t-23.5 32q0 28 17 37t61 23q41 15 68 47t61 88l140 198l225 303q-121 129 -223 273t-203 317q-35 60 -80 78q-33 13 -47.5 24t-14.5 36
q0 36 68 36h287q72 0 72 -32q0 -17 -7 -23t-26 -16q-30 -17 -41 -27t-11 -35q0 -70 110 -209t237 -278l190 235l46.5 58.5t45 61.5t38.5 65t16 53q0 28 -15.5 42t-44.5 25t-43 21t-14 31q0 28 53 28h297q66 0 66 -34q0 -32 -43 -52q-48 -17 -73 -45q-20 -24 -103 -151
l-326 -424q130 -137 224 -248t166 -229l65 -109q32 -48 54 -69q23 -21 69 -37q57 -21 57 -58q0 -43 -66 -43h-315q-68 0 -68 39q0 21 12 30.5t37.5 20t37.5 19.5t12 26q0 51 -166 250q-167 200 -244 267z" />
    <glyph glyph-name="Y" unicode="Y" horiz-adv-x="1434" 
d="M1350 1499q82 0 82 -36q0 -28 -35 -50q-35 -20 -47 -32t-31 -50q-70 -140 -229 -360l-281 -369v-456q0 -20 16 -28.5t50 -18.5q28 -8 42.5 -17t14.5 -35q0 -29 -19 -38t-53 -9h-280q-35 0 -54.5 9t-19.5 38q0 23 12.5 32.5t36.5 17.5q48 16 58.5 36t10.5 84v389
l-162 228.5l-182.5 260t-133.5 220.5q-20 36 -36.5 54t-49.5 32q-29 14 -44.5 26t-15.5 33q0 39 64 39h303q67 0 67 -41q0 -21 -24.5 -34.5l-49 -26.5t-24.5 -35q0 -39 55.5 -128t104.5 -152q51 -66 135 -187l123 -174l293 389q121 167 121 226q0 31 -15 46.5t-45 29
t-42 22.5q-11 9 -11 31q0 34 66 34h229z" />
    <glyph glyph-name="Z" unicode="Z" horiz-adv-x="1188" 
d="M1000 1499q48 0 72 -10t24 -49q0 -86 -166 -337.5t-311 -444.5l-232 -320l-47 -65q-25 -36 -46 -72t-21 -55q0 -25 16 -31q17 -6 51 -6h250q152 0 251 21.5t177 99.5q6 5 23 24q18 18 34 28.5t29 10.5q29 0 29 -31q0 -94 -27 -219q-6 -27 -24.5 -35t-51.5 -8h-860
q-53 0 -89 13.5t-36 58.5t17 78q17 34 61 106l135 197l474 649q41 57 93 143.5t52 116.5q0 34 -80 34h-184q-126 0 -215 -18q-72 -14 -114 -35t-85 -71q-5 -7 -14 -17q-8 -11 -17 -17q-8 -7 -18 -7q-21 0 -27 16.5t-6 61.5q0 5 4 52t9 78.5t12 41.5q16 18 77 18h781z" />
    <glyph glyph-name="bracketleft" unicode="[" horiz-adv-x="492" 
d="M125 1463q0 46 4 62.5t21 20.5q17 5 65 5h127q49 0 71.5 -9t22.5 -39q0 -22 -15.5 -32t-45.5 -19q-74 -28 -92.5 -54t-18.5 -93v-49v-1264v-54q0 -39 6.5 -62.5t27.5 -40.5t67 -34q39 -14 55 -22.5t16 -32.5q0 -32 -26 -40.5t-68 -8.5h-127q-47 0 -64 4.5t-21.5 20.5
t-4.5 63v1678z" />
    <glyph glyph-name="backslash" unicode="\" 
d="M169 1551h147l626 -1551h-141z" />
    <glyph glyph-name="bracketright" unicode="]" horiz-adv-x="492" 
d="M142 -303q-42 0 -68.5 8.5t-26.5 40.5q0 24 16 32t56 23q47 17 67 34q21 17 27 40.5t6 62.5v54v1264v49q0 67 -18 93t-92 54q-31 10 -46 19q-16 10 -16 32q0 30 22.5 39t72.5 9h127q47 0 64 -5t21 -21q5 -16 5 -62v-1678q0 -47 -5 -63q-4 -16 -21 -20.5t-64 -4.5h-127z
" />
    <glyph glyph-name="asciicircum" unicode="^" horiz-adv-x="1352" 
d="M192 574l423 925h118l426 -925h-131l-356 774l-350 -774h-130z" />
    <glyph glyph-name="underscore" unicode="_" horiz-adv-x="1024" 
d="M1024 -159v-101h-1025v101h1025z" />
    <glyph glyph-name="grave" unicode="`" horiz-adv-x="656" 
d="M262 1411q75 0 93 -10q14 -8 30 -49l103 -184q20 -43 20 -56q0 -14 -10 -22t-25 -8q-10 0 -21 7t-22 17q-10 9 -18 17l-216 208q-3 4 -17 16.5t-22 23t-8 20.5q0 26 36 26z" />
    <glyph glyph-name="a" unicode="a" horiz-adv-x="1024" 
d="M879 252q0 -100 14 -131q14 -21 53 -33q43 -11 43 -43q0 -29 -22.5 -37.5t-58.5 -8.5h-91q-34 0 -50 10.5t-20.5 32.5t-4.5 69v51q-122 -193 -342 -193q-93 0 -172.5 33.5t-128.5 99.5t-49 160q0 179 176 289q145 94 372 94l125 -6q-5 74 -45 129.5t-103.5 85.5
t-135.5 30q-57 0 -93 -11q-35 -11 -90 -43l-31 -20t-29 -14q-16 -5 -32 -5q-58 0 -58 51q0 45 83 88q112 53 250 53q186 0 309 -96q131 -103 131 -305v-330zM633 553q-96 0 -192.5 -27.5t-161 -90.5t-64.5 -162q0 -84 54 -131q63 -58 147 -58q61 0 123 21t104 57
q49 41 65.5 92.5t16.5 126.5v166z" />
    <glyph glyph-name="b" unicode="b" horiz-adv-x="1065" 
d="M127 1323q0 46 -18 60.5t-60 29.5q-32 10 -32 31q0 17 9 24t32 19q31 18 89.5 41t86.5 23q47 0 47 -86v-644q134 162 328 162q99 0 176.5 -37.5t126.5 -103.5q50 -66 74 -151q24 -84 24 -183q0 -234 -127 -377q-69 -76 -168.5 -118.5t-202.5 -42.5q-210 0 -309 127
q-48 60 -62 142q-14 83 -14 193v891zM281 432q0 -84 9.5 -145t41.5 -109q36 -53 92 -82.5t119 -29.5q102 0 171 58t100.5 149t31.5 190q0 157 -65 272q-35 62 -88.5 103t-116.5 41q-56 0 -113 -25t-103.5 -65.5t-78.5 -89.5v-267z" />
    <glyph glyph-name="c" unicode="c" horiz-adv-x="942" 
d="M514 882q-65 0 -122 -37t-93 -97q-37 -59 -56 -142q-20 -82 -20 -157q0 -93 38 -176.5t110.5 -134t167.5 -50.5q71 0 140 29.5t114 83.5q20 24 32 36q13 11 33 11q35 0 35 -37q0 -48 -80 -123q-132 -119 -301 -119q-138 0 -241 65q-103 63 -157.5 174t-54.5 247
q0 107 37 203q37 97 103 170q67 73 158 114q92 41 200 41q127 0 226 -67q82 -53 82 -125q0 -30 -21 -55t-49 -25q-23 0 -37 7q-14 8 -26 22.5l-25 31.5q-46 61 -85 85q-39 25 -108 25z" />
    <glyph glyph-name="d" unicode="d" horiz-adv-x="1065" 
d="M764 1351q0 28 -17 38q-17 11 -57 24q-32 15 -32 33q0 17 9 24t32 19q121 62 174 62q30 0 37 -22q8 -22 8 -60v-1307q0 -41 37 -59l24 -13q35 -19 35 -43q0 -30 -16 -38q-17 -10 -62 -10h-129q-19 0 -25 27.5t-6 100.5q-121 -158 -311 -158q-131 0 -230 68
q-100 66 -153.5 178.5t-53.5 241.5q0 103 33 198q34 94 97 168.5t150.5 117t193.5 42.5q77 0 133 -21t129 -67v456zM764 797q-83 47 -132 66t-120 19q-100 0 -173 -57q-74 -59 -109 -151q-37 -92 -37 -190q0 -106 32 -197q32 -90 102 -145.5t179 -55.5q57 0 118.5 23.5
t100.5 62.5q28 26 33.5 47t5.5 66v512z" />
    <glyph glyph-name="e" unicode="e" horiz-adv-x="1024" 
d="M232 357q22 -123 117.5 -197t222.5 -74q77 0 135.5 24t104.5 63.5t70 62t42 22.5q16 0 27 -10q12 -11 12 -27q0 -37 -41 -82q-42 -44 -88 -75q-139 -95 -295 -95q-133 0 -244 61q-111 59 -175 165.5t-64 240.5q0 148 72 274t197 199.5t273 73.5q125 0 209 -53
q56 -35 91.5 -90t35.5 -117q0 -186 -246 -280q-87 -34 -169 -48t-246 -34zM223 445q138 13 250 35.5t204 82.5t92 164q0 77 -50 117q-51 38 -131 38q-120 0 -204 -59q-83 -60 -124 -160t-41 -218h4z" />
    <glyph glyph-name="f" unicode="f" horiz-adv-x="615" 
d="M355 254q0 -6 -1 -26t-1 -31q0 -54 12 -76q5 -7 12 -12q8 -5 19.5 -10.5l17.5 -8.5q41 -14 41 -43t-18 -38q-17 -9 -50 -9h-233q-30 0 -42 9q-11 8 -11 38q0 28 34 41l31 15q34 18 34 108v43v617h-48q-61 0 -85 9.5t-24 41.5q0 49 62 49h24q13 -2 19 -2h52q0 3 2 84
t4 125t9 91.5t19 89.5q29 97 92.5 163.5t155.5 66.5q49 0 86.5 -29.5t37.5 -76.5q0 -31 -21.5 -54.5t-51.5 -23.5q-11 0 -35 17q-41 30 -62 30q-81 0 -81 -209v-43v-231h120q52 0 70 -9t18 -42q0 -31 -22 -39t-62 -8h-124v-617z" />
    <glyph glyph-name="g" unicode="g" horiz-adv-x="1065" 
d="M794 862q148 -146 148 -350q0 -109 -47.5 -206t-134.5 -164q96 -35 160.5 -101t64.5 -158q0 -117 -85 -184.5t-204 -92.5t-239 -25q-130 0 -260 35q-132 36 -132 128q0 26 16.5 61t42 59.5t52.5 24.5t27 -31q0 -10 -2 -26q-2 -15 -2 -25q0 -65 95 -87q96 -23 192 -23
q333 0 333 182q0 74 -46 115q-47 42 -132 80q-80 -29 -157 -29q-202 0 -321 128.5t-119 330.5q0 140 61 249q59 109 167.5 169.5t247.5 60.5q159 -14 377 -14q53 0 81 -10q28 -9 28 -45q0 -54 -90 -54q-13 0 -32.5 1t-25.5 1h-64zM777 525q0 92 -29.5 175.5t-93 135
t-158.5 51.5q-94 0 -159 -56.5t-96.5 -143.5t-31.5 -179q0 -87 28.5 -168t89.5 -133q61 -51 150 -51q103 0 171 50q68 51 98.5 134t30.5 185z" />
    <glyph glyph-name="h" unicode="h" horiz-adv-x="1147" 
d="M994 252q0 -100 14 -131q9 -17 49 -31q41 -14 41 -43q0 -22 -16 -34.5t-37 -12.5h-224q-45 0 -60 9t-15 38q0 23 32 41l21 11l25 18q15 29 15 135v404q0 94 -61 155q-63 59 -172 59q-90 0 -156.5 -31.5t-137.5 -98.5v-488q0 -100 14 -131q9 -16 51 -31q43 -15 43 -43
q0 -47 -53 -47h-240q-45 0 -61.5 9t-16.5 38q0 27 37 41q41 12 56 29q15 29 15 135v1077q0 41 -16.5 55t-56.5 29q-33 9 -33 31q0 17 9.5 24t31.5 19q30 17 88.5 40.5t85.5 23.5q29 0 37.5 -20t8.5 -64v-617q68 65 154 99t179 34q76 0 145.5 -28.5t119.5 -81.5
q51 -57 67.5 -124t16.5 -161v-336z" />
    <glyph glyph-name="i" unicode="i" horiz-adv-x="492" 
d="M117 1254q0 48 33 79t82 31q47 0 78.5 -30t31.5 -76q0 -54 -33 -85.5t-86 -31.5q-47 0 -76.5 33t-29.5 80zM142 0q-70 0 -70 45q0 33 39 43q44 13 57.5 40.5t13.5 92.5v433q-1 36 -2.5 64t-6.5 46q-6 19 -23 32q-18 14 -53 21q-46 9 -46 37q0 19 13 29q26 26 127 65
q3 2 25 13.5t34 16.5t23 5q33 0 40.5 -20.5t16.5 -73.5q8 -48 8 -113q0 -19 -1 -57t-1 -57v-410q0 -6 -1 -25t-1 -30q0 -54 12 -76q9 -16 52 -31t43 -45q0 -27 -17.5 -36t-50.5 -9h-231z" />
    <glyph glyph-name="j" unicode="j" horiz-adv-x="451" 
d="M115 1254q0 48 33 79t82 31q47 0 78.5 -30t31.5 -76q0 -54 -33 -85.5t-86 -31.5q-48 0 -77 33t-29 80zM338 191q0 -266 -55 -392q-35 -83 -103.5 -151t-144.5 -68q-34 0 -65 21q-30 22 -30 55q0 35 25 58.5t62 23.5q19 0 45.5 -8.5t36.5 -8.5q49 0 63 48q12 47 12 145
v760q0 86 -20 115q-15 19 -65 28q-46 9 -46 39q0 16 13 29q11 9 29.5 18.5l46.5 23l51 24.5l29.5 14t30 13t24.5 5q43 0 51 -53q10 -90 10 -268v-471z" />
    <glyph glyph-name="k" unicode="k" horiz-adv-x="1024" 
d="M621 621l-27 -27q191 -179 344 -440q16 -29 26 -39t34 -23q36 -18 36 -47t-10.5 -37t-40.5 -8h-233q-58 0 -58 41q0 16 9 26t26.5 20t25 17t7.5 21q0 58 -101 186.5t-171 190.5l-176 -143v-105q0 -100 14 -131q9 -17 49 -31q37 -20 37 -45q0 -21 -15.5 -34t-37.5 -13
h-236q-33 0 -51.5 9.5t-18.5 37.5q0 29 37 43q43 14 54 29q13 19 13 86v49v1000v45q0 47 -13 73t-58 41q-35 16 -35 33q0 16 10 23t33 20q117 62 172 62q30 0 38 -22t8 -60v-992q364 282 364 373q0 24 -31 47q-28 22 -28 41q0 31 49 31h239q27 0 40.5 -5.5t13.5 -27.5
q0 -33 -47 -53q-32 -14 -56 -30q-23 -15 -43 -34q-20 -18 -45 -45l-45 -49z" />
    <glyph glyph-name="l" unicode="l" horiz-adv-x="451" 
d="M151 1331q0 60 -71 82q-33 11 -33 31q0 12 7 19q6 8 16 14t18 10q127 64 174 64q28 0 35.5 -19.5t7.5 -62.5v-1217q0 -78 9 -110q4 -20 9 -27t21 -14l23 -13q37 -18 37 -43q0 -29 -11 -37t-45 -8h-237q-30 0 -42.5 8.5t-12.5 36.5q0 25 34 43l37 19q26 19 26 92
q0 11 -1 29q-1 19 -1 24v1079z" />
    <glyph glyph-name="m" unicode="m" horiz-adv-x="1721" 
d="M1577 148q0 -21 7.5 -28t29.5 -17l23 -13q36 -18 36 -43q0 -30 -11 -38.5t-44 -8.5h-221q-40 0 -56 8.5t-16 38.5q0 24 35 41l29 12q15 6 24.5 17t9.5 31v448q0 123 -26 176q-23 48 -69 74q-45 24 -101 24q-61 0 -127 -26t-110 -77t-44 -120v-499q0 -19 7 -29t19 -15
l34 -14q37 -18 37 -43q0 -31 -11 -39t-47 -8h-223q-38 0 -52.5 8.5t-14.5 38.5q0 24 32 41q4 2 23 10q20 7 31 18t11 32v428q0 86 -14 149q-14 64 -59 104.5t-131 40.5q-95 0 -183.5 -60.5t-88.5 -162.5v-499q0 -20 10 -31t25 -16l30 -11q39 -15 39 -43q0 -29 -17 -38
t-48 -9h-211q-42 0 -60 9.5t-18 37.5q0 25 33 39q6 3 19 8t22.5 11.5t15.5 17t6 25.5v504q0 79 -12.5 117t-55.5 50q-6 2 -19.5 7t-20.5 11.5t-7 16.5q0 13 9.5 25.5t23 24l27.5 22.5q8 6 21.5 17t27.5 20.5t26.5 14.5t26.5 5q41 0 56.5 -53t25.5 -127q62 86 147 133t185 47
q99 0 171 -45t126 -135q57 83 147 131.5t189 48.5q154 0 245 -106q76 -88 76 -287v-442z" />
    <glyph glyph-name="n" unicode="n" horiz-adv-x="1147" 
d="M998 148q0 -20 11 -31t24.5 -16t27.5 -11q37 -18 37 -43q0 -21 -15 -34t-36 -13h-226q-46 0 -61.5 9t-15.5 38q0 27 34 41l18.5 6t22.5 10t17.5 17t7.5 27v530q0 192 -238 192q-128 0 -225 -85q-41 -39 -53 -82q-12 -42 -12 -113v-442q0 -15 6.5 -24.5t17.5 -16.5
q12 -8 21 -11l18 -6q41 -14 41 -43q0 -21 -15 -34t-38 -13h-227q-47 0 -65 9q-17 9 -17 38q0 27 36 41q11 3 21 7q11 3 21 9q11 5 18.5 16t7.5 28v528q0 62 -11 94q-11 33 -54 47q-48 17 -48 37q0 19 12.5 32.5t39.5 35.5l33.5 26t35.5 24t35 11q25 0 40.5 -18.5t24.5 -47
t13.5 -60.5l7.5 -52q74 93 159.5 135.5t205.5 42.5q78 0 149 -25t117 -77q76 -83 76 -297v-436z" />
    <glyph glyph-name="o" unicode="o" horiz-adv-x="1147" 
d="M1084 484q0 -144 -69 -262q-68 -118 -188 -185t-262 -67q-136 0 -252 68q-115 68 -182.5 184t-67.5 253q0 135 70.5 253t189 186.5t253.5 68.5t252.5 -66.5t186.5 -182t69 -250.5zM834 203q85 111 85 283q0 107 -40 198t-119 144.5t-188 53.5q-114 0 -191.5 -57.5
t-114.5 -152.5q-38 -94 -38 -205q0 -168 89 -282.5t251 -114.5q77 0 148 36q70 34 118 97z" />
    <glyph glyph-name="p" unicode="p" horiz-adv-x="1188" 
d="M348 -152q0 -100 15 -131q7 -14 49 -33q39 -15 39 -43q0 -27 -11.5 -35t-39.5 -8h-246q-33 0 -45 7t-12 36q0 26 32 43q40 0 52.5 39.5t12.5 104.5v832q0 84 -14 124q-16 41 -71 48l-17.5 2.5t-20 5.5t-15 10t-5.5 17q0 36 69.5 76t109.5 40q30 0 50.5 -16.5t32 -42.5
t20 -61l13.5 -56q78 88 157 132t183 44q191 0 320 -145q117 -134 117 -346q0 -227 -117 -361q-66 -76 -163 -118.5t-198 -42.5q-61 0 -148 28q-87 29 -87 78q0 17 10 32q11 15 27 15q17 0 43 -14q73 -35 168 -35q63 0 124.5 33.5t98.5 85.5q77 112 77 282q0 164 -72.5 276.5
t-227.5 112.5q-128 0 -217 -79q-53 -48 -73 -103t-20 -133v-701z" />
    <glyph glyph-name="q" unicode="q" horiz-adv-x="1065" 
d="M942 -152q0 -100 15 -131q7 -14 49 -33q39 -15 39 -43q0 -29 -9 -36q-8 -7 -36 -7h-250q-30 0 -42.5 8t-12.5 35q0 23 30 41q39 3 52 34q11 31 11 91v324q-58 -75 -143.5 -118.5t-179.5 -43.5q-132 0 -230.5 68t-151.5 180t-53 240q0 140 61.5 261t173.5 193t253 72
q157 0 273 -86q10 7 37 33t46 40q20 13 38 13q30 0 30 -80v-1055zM788 606q0 138 -71 207q-75 71 -188 71q-115 0 -190 -58.5t-109.5 -155t-34.5 -209.5q0 -98 35.5 -184.5t105.5 -138.5q71 -52 170 -52q129 0 225 84q39 34 48 68.5t9 103.5v264z" />
    <glyph glyph-name="r" unicode="r" horiz-adv-x="738" 
d="M340 168q0 -39 15.5 -51.5t46.5 -24.5q37 -18 37 -43q0 -30 -18 -39.5t-50 -9.5h-219q-33 0 -51.5 9t-18.5 40q0 26 35 41q10 3 21 7t22 12t18.5 22t7.5 37v492q0 56 -26.5 94.5t-60.5 54.5q-27 12 -37.5 19t-10.5 24q0 31 54 70q84 61 114 61q51 0 74 -78.5t37 -179.5
q37 89 117 173.5t157 84.5q59 0 88 -32.5t29 -92.5q0 -28 -11 -51.5t-36 -23.5q-16 0 -59 21q-44 22 -66 22q-41 0 -80.5 -39t-68.5 -88q-60 -100 -60 -217v-314z" />
    <glyph glyph-name="s" unicode="s" horiz-adv-x="819" 
d="M494 568q134 -36 192 -86q40 -33 64 -83t24 -100q0 -98 -53.5 -173.5t-141 -115.5t-183.5 -40q-127 0 -238 67q-43 27 -77 66.5t-34 81.5q0 21 15.5 40t36.5 19q22 0 36 -13t41 -44q40 -45 53 -57t48 -27q77 -35 141 -35q82 0 147.5 45.5t65.5 124.5q0 85 -62 116.5
t-202 66.5q-139 34 -211 89.5t-72 179.5q0 63 28.5 121t80.5 99q90 73 235 73q141 0 254 -65q28 -16 34.5 -35t6.5 -57q0 -51 -4.5 -72t-21.5 -21q-22 0 -69 47t-95 77t-127 30q-76 0 -134.5 -38t-58.5 -109q0 -62 45 -92t123 -52z" />
    <glyph glyph-name="t" unicode="t" horiz-adv-x="615" 
d="M332 259q0 -59 7.5 -91t34.5 -49.5t85 -17.5q6 0 25 1t30 1q76 0 76 -52q0 -24 -19 -37.5t-44 -13.5h-277q-45 0 -58 24q-15 23 -15 75v772h-68q-50 0 -72 11t-22 48q0 39 67 39q41 0 65 9t38 43q12 29 26.5 98t18.5 110q6 57 15.5 88t43.5 31q43 0 43 -77v-302h158
q55 0 75.5 -8t20.5 -39q0 -34 -23.5 -42.5t-64.5 -8.5h-166v-612z" />
    <glyph glyph-name="u" unicode="u" horiz-adv-x="1065" 
d="M129 688q0 97 -12 131q-8 25 -49 50q-37 18 -37 43q0 26 71 48.5t107 22.5q74 0 74 -112v-521q0 -122 24 -174q49 -94 170 -94q69 0 141 29.5t117 79.5q45 47 45 123v55v342v47q0 41 -9.5 66.5t-41.5 44t-32 36.5q0 19 12 28t35 19.5t64.5 20.5t68.5 10q36 0 46.5 -30.5
t10.5 -98.5v-604q0 -100 14 -131q13 -19 54 -31q43 -15 43 -43t-12 -36q-12 -10 -42 -10h-143q-23 0 -40 42q-17 40 -17 99q-71 -76 -162.5 -123.5t-185.5 -47.5q-72 0 -137 29q-64 30 -105 84q-72 94 -72 279v327z" />
    <glyph glyph-name="v" unicode="v" horiz-adv-x="942" 
d="M293 969q19 0 31 -13t12 -32q0 -22 -31 -42q-31 -19 -46 -36q-15 -16 -15 -65q0 -69 45 -195q45 -125 109 -249t112 -183q90 122 156 278q103 269 103 355q0 60 -45 92q-23 19 -28 25q-5 7 -5 26q0 39 57 39h153q32 0 46 -7t14 -34q0 -13 -26 -51q-23 -28 -28.5 -42.5
t-21.5 -70.5l-34 -127q-64 -235 -206 -475q-26 -50 -77 -121.5t-86 -71.5q-37 0 -99 89q-65 92 -111.5 178.5t-81.5 176t-59.5 175.5t-54.5 215q-7 31 -18 48t-28 30q-17 14 -22.5 21t-5.5 22q0 22 15.5 33.5t35.5 11.5h240z" />
    <glyph glyph-name="w" unicode="w" horiz-adv-x="1475" 
d="M869 969q41 0 41 -39q0 -19 -7 -27q-8 -7 -28 -20q-21 -12 -31 -27t-10 -45q0 -87 36 -210q35 -122 89.5 -244.5t105.5 -204.5q49 64 102 187t89 249q35 127 35 205q0 44 -13 60t-40 35t-27 40q0 27 14 34t41 7h154q57 0 57 -35q0 -11 -10 -29q-24 -36 -32 -56
q-7 -20 -25 -85l-29 -108q-88 -318 -189 -500q-44 -83 -106 -162q-22 -25 -49 -25q-64 0 -154 195.5t-145 355.5q-25 -68 -85 -201t-127.5 -241.5t-111.5 -108.5q-21 0 -48 31t-51 73q-25 43 -44 82l-31 64q-60 132 -103 281t-67 301q-5 31 -15 50t-20 28.5t-20.5 21.5
t-10.5 27q0 27 13.5 34t40.5 7h198q31 0 41 -8q10 -7 10 -39q0 -17 -7.5 -24t-28.5 -18t-31 -25t-10 -42q0 -108 77 -352q59 -191 138 -309q65 83 119.5 197.5t88 237.5t33.5 222q0 36 -9.5 47t-35.5 33t-26 43q0 37 65 37h189z" />
    <glyph glyph-name="x" unicode="x" horiz-adv-x="1024" 
d="M180 750q-37 55 -61.5 84t-63.5 49q-22 13 -29.5 22t-7.5 31t12 27q11 6 38 6h239q26 0 37 -6t11 -29q0 -18 -25 -39.5t-25 -38.5q0 -19 23.5 -55.5t55.5 -74.5t75 -84t49 -54q60 63 124 146q65 83 65 122q0 14 -8 21t-25 17.5t-24 18.5t-7 23q0 33 53 33h189
q28 0 39.5 -6t11.5 -29q0 -25 -32 -43q-36 -19 -48.5 -29.5t-35.5 -44.5l-238 -297l232 -272q71 -94 102 -121q14 -14 68 -39q34 -17 34 -45q0 -43 -57 -43h-246q-27 0 -39 7.5t-12 31.5q0 12 6 22q7 9 20 21t19 19.5t6 19.5q0 29 -68 106l-135 146l-35 37
q-64 -67 -130 -151.5t-66 -123.5q0 -19 9 -30q9 -10 28 -21q18 -10 28 -20q10 -9 10 -27q0 -37 -55 -37h-231q-26 0 -34 8q-10 7 -10 35q0 29 37 43q43 22 54 31t42 53l255 309z" />
    <glyph glyph-name="y" unicode="y" horiz-adv-x="983" 
d="M82 776q-6 49 -14 72q-7 24 -33 41l-16 12.5t-13.5 14t-5.5 16.5q0 23 13 30t40 7h218q47 0 47 -33q0 -19 -26 -41t-40 -44t-14 -77q0 -40 13 -113t33 -152t34 -118q43 -109 102 -174q62 -71 119 -71q98 0 164 202q34 94 61 207t27 193q0 78 -17.5 102.5t-49.5 42.5
q-31 17 -31 45q0 20 10 25q11 6 35 6h180q45 0 45 -29q0 -16 -6 -28q-33 -63 -39 -107l-28 -174q-17 -103 -52 -217q-35 -113 -82 -223t-98 -204q-89 -159 -219 -283t-275 -124q-46 0 -79.5 21t-33.5 63q0 29 22 51q21 23 50 23q19 0 55 -8q37 -9 56 -9q62 0 134 57.5
t130 137.5q56 80 76 144q-61 -21 -95 -21q-81 0 -150 65t-114 152q-86 171 -121 422z" />
    <glyph glyph-name="z" unicode="z" horiz-adv-x="860" 
d="M170 0q-55 0 -90 12t-35 56q0 37 49.5 111.5t123.5 165.5l100 122l244 297q45 56 45 80q0 23 -68 23h-168q-77 0 -116 -14.5t-79 -69.5l-14 -21t-17 -19.5t-20 -7.5q-24 0 -24 39q0 10 2 25q2 16 2 18q1 5 7 39q7 34 14 63q8 29 14 38q14 12 71 12h492q64 0 92 -10
q29 -10 29 -43q0 -45 -39 -104t-100 -134l-253 -309l-133 -170q-30 -34 -30 -68q0 -28 61 -28h272q29 0 52.5 18.5t40.5 42.5l30 43q39 49 64 49q23 0 23 -26q0 -38 -11 -102t-23 -91q-10 -24 -33 -30.5t-61 -6.5h-514z" />
    <glyph glyph-name="braceleft" unicode="{" horiz-adv-x="615" 
d="M383 -19q0 -99 35 -154t127 -85q-81 0 -130 9t-95 46q-48 35 -64 90q-15 55 -15 136v397q0 59 -6 91t-36 69q-45 53 -123 74q54 5 107 47q40 33 49 73t9 111v352q0 117 25.5 183.5t90.5 98.5t188 32q-89 -26 -125.5 -83.5t-36.5 -154.5v-373q0 -84 -13 -140
q-14 -55 -54 -93q-40 -37 -115 -53q73 -19 112.5 -53.5t54.5 -86.5t15 -131v-402z" />
    <glyph glyph-name="bar" unicode="|" horiz-adv-x="1352" 
d="M619 1551h129v-1551h-129v1551z" />
    <glyph glyph-name="braceright" unicode="}" horiz-adv-x="615" 
d="M239 1313q0 99 -36 156t-125 82q123 0 187.5 -32t90 -99.5t25.5 -182.5v-352q0 -71 10 -111t50 -73q51 -42 106 -47q-78 -21 -123 -74q-29 -36 -36 -68.5t-7 -91.5v-397q0 -81 -14.5 -136t-63.5 -90q-47 -37 -95.5 -46t-129.5 -9q93 30 127 84q34 55 34 155v402
q0 117 38.5 180.5t144.5 90.5q-75 16 -115 53q-40 38 -54 93q-14 56 -14 140v373z" />
    <glyph glyph-name="asciitilde" unicode="~" horiz-adv-x="1352" 
d="M1247 621q-49 -70 -89 -113q-39 -44 -93 -73q-53 -29 -123 -29q-49 0 -90 11q-42 12 -117 40l-112 41q-77 30 -114 42.5t-81 12.5q-75 0 -124 -42.5t-103 -125.5l-97 64q72 111 145 169t181 58q56 0 120 -19.5t155 -55.5t141.5 -53t91.5 -17q70 0 116 39t95 112z" />
    <glyph glyph-name="Odieresis" unicode="&#x2026;" horiz-adv-x="2048" 
d="M231 97q0 44 33 75t78 31q47 0 77.5 -32t30.5 -81q0 -45 -32 -75q-33 -32 -78 -32q-47 0 -77 34q-32 32 -32 80zM914 97q0 44 32 75q33 31 78 31q47 0 78 -32t31 -81q0 -45 -33 -75q-33 -32 -78 -32q-47 0 -77 34q-31 32 -31 80zM1596 97q0 44 32 75q33 31 78 31
q47 0 78 -32t31 -81q0 -45 -33 -75q-33 -32 -78 -32q-47 0 -77 34q-31 32 -31 80z" />
    <glyph glyph-name="Udieresis" unicode="&#x2020;" horiz-adv-x="1024" 
d="M604 674l-69 -881q-3 -34 -7 -48t-24 -14q-31 0 -31 62l-61 881l45 283l-246 -45q-33 -4 -47 -4q-36 0 -63 16q-46 27 -46 86q0 47 31 72q24 20 58 20q15 0 41 -4l272 -41l-41 324q-4 32 -4 47q0 34 14 55q32 47 90 47q37 0 66 -29q20 -20 20 -102l-43 -342l258 41
q48 6 56 6q32 0 53 -16q43 -30 43 -84q0 -45 -29 -72t-73 -27q-14 0 -33.5 3t-28.5 4l-246 45z" />
    <glyph glyph-name="edieresis" unicode="&#x2018;" horiz-adv-x="574" 
d="M172 1204q0 84 38 166.5t102 137.5q22 22 32 22t17.5 -7.5t7.5 -16.5t-35.5 -47t-61.5 -81t-26 -98q0 -29 9.5 -39t35.5 -10q109 0 109 -98q0 -41 -30 -67q-29 -27 -71 -27q-63 0 -95 50t-32 115z" />
    <glyph glyph-name="iacute" unicode="&#x2019;" horiz-adv-x="574" 
d="M402 1364q0 -83 -38 -166q-38 -82 -102 -137q-21 -22 -32 -22q-10 0 -17 7q-8 8 -8 17t35.5 47t62.5 81q25 43 25 97q0 30 -9 40t-36 10q-109 0 -109 98q0 27 14 48.5t37 33.5t50 12q64 0 95 -49q32 -50 32 -117z" />
    <glyph glyph-name="igrave" unicode="&#x201c;" horiz-adv-x="942" 
d="M172 1204q0 84 38 166.5t102 137.5q22 22 32 22t17.5 -7.5t7.5 -16.5t-35.5 -47t-61.5 -81t-26 -98q0 -29 9.5 -39t35.5 -10q109 0 109 -98q0 -41 -30 -67q-29 -27 -71 -27q-63 0 -95 50t-32 115zM530 1204q0 84 38.5 167t101.5 137q24 22 33 22q10 0 17 -7.5t7 -16.5
t-36 -48t-62 -81q-25 -42 -25 -97q0 -29 9 -39q10 -10 36 -10q109 0 109 -98q0 -40 -29.5 -67t-70.5 -27q-64 0 -96 49q-32 50 -32 116z" />
    <glyph glyph-name="icircumflex" unicode="&#x201d;" horiz-adv-x="942" 
d="M760 1364q0 -83 -37 -166q-38 -82 -102 -137q-21 -22 -33 -22q-9 0 -17 7t-8 17q0 9 36 47.5t61.5 81t25.5 96.5q0 30 -9 40t-36 10q-109 0 -109 98q0 27 14.5 48.5t37.5 33.5t49 12q64 0 95.5 -49.5t31.5 -116.5zM402 1364q0 -83 -38 -166q-38 -82 -102 -137
q-21 -22 -32 -22q-10 0 -17 7q-8 8 -8 17t35.5 47t62.5 81q25 43 25 97q0 30 -9 40t-36 10q-109 0 -109 98q0 27 14 48.5t37 33.5t50 12q64 0 95 -49q32 -50 32 -117z" />
    <glyph glyph-name="ntilde" unicode="&#x2013;" horiz-adv-x="1024" 
d="M82 526q-54 0 -74.5 9.5t-20.5 42.5q0 44 17.5 54.5t77.5 10.5h858q56 0 76 -8q21 -9 21 -41q0 -45 -18 -56q-17 -12 -79 -12h-858z" />
    <glyph glyph-name="oacute" unicode="&#x2014;" horiz-adv-x="2048" 
d="M105 526q-68 0 -92 10q-26 9 -26 42q0 31 10 44q10 14 33 17.5t75 3.5h1839q68 0 92.5 -8t24.5 -41q0 -46 -21 -56q-21 -12 -96 -12h-1839z" />
    <glyph glyph-name="ocircumflex" unicode="&#x2122;" horiz-adv-x="1639" 
d="M1235 885q-43 -102 -71 -102q-26 0 -46 34l-86 195l-104 276v-591q0 -13 44 -31q40 -13 40 -49q0 -42 -35 -45h-162q-29 0 -41 9.5t-12 37.5q0 33 37 43q23 7 30 22q5 14 5 56v645q0 5 -3.5 7.5t-8.5 4.5q-4 2 -10 4q-25 9 -36 19q-10 10 -10 34q0 31 17 38t55 7h98
q39 0 51 -6t21 -30l10 -35l154 -439q34 49 80 201l69 227q15 58 28.5 70t65.5 12h43q8 0 26 1t28 1q55 0 55 -47q0 -40 -39 -57q-18 -10 -22.5 -21.5t-4.5 -39.5v-596q0 -42 6.5 -56.5t28.5 -21.5q37 -10 37 -43q0 -28 -12 -38q-12 -9 -41 -9h-160q-28 2 -39.5 9.5
t-11.5 35.5q0 34 38 47q31 13 31 33v561zM471 740q0 -40 4.5 -55t22.5 -19q45 -15 45 -47q0 -28 -12 -37.5t-41 -9.5h-164q-29 0 -41 9q-12 10 -12 38q0 33 36 43q24 7 29.5 21.5t5.5 56.5v630q0 26 -3 31.5t-17 5.5q-25 0 -82 -12q-44 -11 -67 -28q-24 -16 -44 -54
q-20 -37 -41 -37q-37 0 -37 47q0 13 5 36t6 34q4 19 10 50q6 32 12 41t20 12t48 3h506q32 0 47 -4t21 -14q7 -9 10.5 -28t9.5 -48q3 -18 6 -31.5t4.5 -23.5t1.5 -21q0 -49 -39 -49q-19 0 -35 31q-26 49 -61 66q-35 18 -98 24q-15 2 -28 4t-15 2q-13 0 -13 -33v-634z" />
    <glyph glyph-name="section" unicode="&#xa4;" 
d="M1039 1280q27 27 37 35t28 8q22 0 42 -21t20 -42q0 -22 -25 -43l-117 -119q48 -67 74.5 -117t40.5 -107q12 -56 12 -134q0 -182 -109 -316l101 -100q41 -37 41 -62q0 -23 -23 -46t-45 -23q-25 0 -63 43l-100 99q-71 -54 -160 -86q-90 -34 -176 -34q-178 0 -332 115
l-109 -109q-9 -9 -20 -19q-10 -10 -21 -16t-22 -6q-21 0 -41.5 20.5t-20.5 41.5q0 19 8 28.5t33 34.5l109 109q-125 149 -125 358q0 187 109 310l-101 100l-19 19q-10 11 -16 21t-6 23q0 23 20.5 42.5t43.5 19.5q19 0 45 -24.5t64 -67t50 -50.5q67 65 154 96.5t184 31.5
q185 0 336 -113zM604 1138q-103 0 -190 -52q-88 -54 -137 -143q-51 -90 -51 -193q0 -105 53 -193.5t142 -138.5q90 -51 194 -51q103 0 192 52q88 53 139 141.5t51 193.5q0 107 -52 195q-54 88 -145 138.5t-196 50.5z" />
    <glyph glyph-name="bullet" unicode="&#xa5;" 
d="M881 1121q90 170 90 212q0 32 -12 46t-35 25t-34 22t-11 34q0 39 55 39h217q37 0 37 -45q0 -20 -33 -63q-45 -58 -75 -123l-283 -494h166q27 0 37 -6.5t10 -36.5q0 -35 -16 -45t-58 -10h-203l-34 -59v-78h245q37 0 50.5 -8t13.5 -37q0 -36 -16 -44q-15 -9 -52 -9h-241
v-263q0 -30 25 -53q23 -23 48 -35q39 -17 39 -53q0 -37 -47 -37h-282q-16 0 -28 14q-11 13 -11 33q0 23 9 30q10 7 32 13q44 14 54 57q11 42 13 124v170h-250q-34 0 -49 9q-14 8 -14 44q0 30 12.5 37.5t40.5 7.5h37h223v60l-51 78l-188 -1q-49 0 -65.5 10.5t-16.5 46.5
q0 41 45 41h161l-288 510q-44 93 -74 107q-35 17 -46 26.5t-11 38.5q0 43 45 43h229q59 0 59 -49q0 -17 -10 -27t-29 -21t-28.5 -21.5t-9.5 -30.5q0 -45 145 -295l209 -344q99 122 172 256z" />
    <glyph glyph-name="germandbls" unicode="&#xa7;" horiz-adv-x="1065" 
d="M372 277q-166 47 -229 110q-99 99 -99 226q0 150 177 303q-54 63 -78 114.5t-24 124.5q0 111 63.5 197t164.5 132t210 46q151 0 314 -84q34 -19 47 -33t16 -27.5t12 -70.5l17 -96q4 -24 4 -39q0 -49 -43 -49q-24 0 -41 37q-116 261 -324 261q-67 0 -136 -26t-114 -78.5
t-45 -122.5q0 -94 78 -149q77 -54 195 -90l133 -39q108 -33 181 -68.5t123 -99t50 -160.5q0 -91 -37.5 -162.5t-114.5 -171.5q51 -62 76 -115t25 -124q0 -88 -39 -170.5t-108 -143.5q-135 -119 -330 -119q-143 0 -277 72q-37 18 -50.5 30t-23.5 44q-18 54 -40 139.5
t-22 118.5q0 47 46 47q24 0 44.5 -46t59.5 -124.5t101 -125t164 -46.5q78 0 152 33q75 34 120.5 95t45.5 142q0 101 -80 163.5t-194 95.5zM602 393q129 -34 195 -75q4 8 30 54q26 47 36.5 78t10.5 68q0 90 -63 150q-43 43 -153 76l-215 59q-91 25 -148 59q-46 -53 -68 -96
q-22 -42 -22 -102q0 -97 68.5 -147.5t181.5 -82.5z" />
    <glyph glyph-name="copyright" unicode="&#xa9;" horiz-adv-x="1721" 
d="M858 1530q204 0 377 -105t274 -284.5t101 -390.5q0 -210 -100 -390q-102 -181 -275 -285.5t-377 -104.5q-202 0 -375 105t-273.5 285t-100.5 390q0 211 100.5 390.5t273.5 284.5t375 105zM858 1439q-177 0 -329 -93q-152 -92 -241 -251t-89 -345q0 -187 90 -345
q88 -159 240 -252t329 -93q178 0 331 93t242 251.5t89 345.5q0 186 -89 345t-242 251q-153 93 -331 93zM1184 547q22 0 37.5 -17t15.5 -40q0 -49 -51 -105q-112 -135 -305 -135q-101 0 -183 40.5t-139.5 112.5t-87 163.5t-29.5 193.5q0 95 30 184.5t87.5 163t136.5 116.5
q80 42 173 42q75 0 158 -24q84 -26 137 -70q21 -17 25 -46t7 -87q0 -59 -9 -81t-40 -22q-25 0 -44 34l-42 78.5t-69.5 75t-124.5 29.5q-138 0 -198 -121t-60 -278q0 -99 30.5 -186t95.5 -142t160 -55q78 0 128 28.5t93 94.5q19 29 31.5 41t36.5 12z" />
    <glyph glyph-name="acute" unicode="&#xab;" horiz-adv-x="697" 
d="M217 615q-6 -16 -6 -37q0 -18 6 -37l84 -195q1 -1 12 -27.5t11 -35.5q0 -14 -9 -24q-8 -11 -22 -11q-13 0 -26 11q-12 11 -25 28l-19 27l-135 198q-37 58 -37 72q0 9 33 61l139 215l19 28q11 15 23 24q11 10 26 10q12 0 22.5 -9t10.5 -22q0 -8 -23 -70zM521 615
q-6 -16 -6 -37q0 -18 6 -37l84 -195q22 -57 22 -63q0 -14 -9 -24q-8 -11 -22 -11q-25 0 -69 66l-135 198q-37 57 -37 72q0 8 33 61l139 215l12.5 19.5t15.5 21t18 15.5t21 6q13 0 23 -9t10 -22t-22 -70z" />
    <glyph glyph-name="dieresis" unicode="&#xac;" horiz-adv-x="1352" 
d="M1082 624h-938v130h1065v-647h-127v517z" />
    <glyph glyph-name="AE" unicode="&#xae;" horiz-adv-x="1639" 
d="M832 1530q202 0 375 -105t273.5 -284.5t100.5 -390.5q0 -210 -100.5 -390t-273.5 -285t-375 -105q-203 0 -375.5 105t-273.5 285t-101 390q0 211 101 390.5t273.5 284.5t375.5 105zM832 60q178 0 330 93t240.5 252t88.5 345t-88.5 345t-240.5 251.5t-330 92.5t-330 -92.5
t-241 -251.5t-89 -345t89 -345t241 -252t330 -93zM658 449q0 -41 6 -53q4 -12 24 -17q27 -7 40 -18q14 -10 14 -37q0 -32 -22 -41q-22 -8 -60 -8h-138q-40 0 -61.5 9t-21.5 44q0 36 43 47q28 8 28 96v621q0 37 -22 43q-28 11 -38.5 20t-10.5 31q0 34 19 44q20 9 64 9h369
q138 0 205 -53q41 -30 66.5 -78.5t25.5 -99.5q0 -84 -53 -149t-135 -107q64 -82 101 -143.5t67 -147.5l14.5 -40t14.5 -26.5t28 -21.5q23 -14 31 -22q8 -7 8 -27q0 -32 -21 -41q-22 -8 -59 -8h-135q-39 0 -61 9q-21 8 -21 40q0 18 8 28q9 9 26 17q18 7 23.5 10.5t5.5 16.5
q0 41 -29 102q-29 62 -70 120q-40 57 -73 91l-200 -43v-217zM658 781q380 59 380 221q0 63 -39 93t-90 37t-120 7q-46 4 -54 4q-44 0 -60.5 -16t-16.5 -56v-290z" />
    <glyph glyph-name="infinity" unicode="&#xb0;" horiz-adv-x="819" 
d="M410 921q-84 0 -154.5 41.5t-111.5 112t-41 154.5q0 82 42 153q40 71 111 112.5t154 41.5q82 0 153 -41.5t112.5 -112.5t41.5 -153q0 -83 -41.5 -154t-112.5 -112.5t-153 -41.5zM410 1018q57 0 105 28t77 76q29 49 29 107q0 57 -29 105t-78 77t-106 29t-105 -29t-75 -77
q-29 -49 -29 -105q0 -89 61 -150q62 -61 150 -61z" />
    <glyph glyph-name="plusminus" unicode="&#xb1;" horiz-adv-x="1352" 
d="M613 727v338h129v-338h467v-130h-467v-339h-129v339h-469v130h469zM1209 129v-130h-1065v130h1065z" />
    <glyph glyph-name="yen" unicode="&#xb4;" horiz-adv-x="656" 
d="M248 1123q-8 -8 -18.5 -17.5t-21.5 -16.5t-21 -7q-36 0 -36 30q0 13 21 56l103 184q16 41 30 49q18 10 93 10l77 6q35 0 35 -26q0 -10 -8 -20.5t-21.5 -23t-17.5 -16.5z" />
    <glyph glyph-name="mu" unicode="&#xb5;" horiz-adv-x="1065" 
d="M798 711v47q0 81 -50 111q-33 18 -33 36q0 35 68 56.5t112 21.5q37 0 47.5 -30.5t10.5 -98.5v-604q0 -64 4 -91q2 -28 15.5 -43.5t47.5 -27.5q43 -15 43 -43t-12 -36q-12 -10 -41 -10h-143q-24 0 -41 42q-17 40 -17 99q-70 -76 -162 -123q-91 -48 -186 -48q-87 0 -160 43
v-326q0 -51 -18 -69.5t-60 -18.5q-40 0 -58 18.5t-18 69.5v1002q0 88 -9 121t-52 60q-37 18 -37 43q0 26 71.5 48.5t107.5 22.5q73 0 73 -112v-521q0 -122 25 -174q49 -94 170 -94q68 0 140 29.5t118 79.5q44 47 44 123v55v342z" />
    <glyph glyph-name="partialdiff" unicode="&#xb6;" horiz-adv-x="1475" 
d="M1190 -230q0 -79 -13 -113t-61 -34q-50 0 -62 29q-14 29 -14 88v1640h-135v-1614v-43q0 -47 -14 -74q-14 -26 -57 -26q-51 0 -63 32t-16 101v762q-128 13 -250.5 49t-229 102.5t-169.5 167.5q-65 100 -65 232q0 227 172 342q85 56 179 72t227 16h714q33 0 55.5 -22.5
t22.5 -54.5q0 -38 -28 -57t-68 -19q-20 0 -40 2.5t-45.5 7t-39.5 6.5v-1592zM695 1390q-459 0 -459 -323q0 -121 59 -207q58 -85 170 -147q156 -84 290 -92v769h-60z" />
    <glyph glyph-name="summation" unicode="&#xb7;" horiz-adv-x="942" 
d="M119 699q0 94 48.5 174.5t131 127t178.5 46.5q92 0 172 -47q80 -46 127.5 -126t47.5 -175q0 -96 -48 -176.5t-130.5 -127.5t-180.5 -47q-91 0 -171 47q-79 47 -127 128t-48 176z" />
    <glyph glyph-name="pi" unicode="&#xb9;" horiz-adv-x="819" 
d="M78 1207q0 83 46 152.5t122 110t158 40.5q85 0 159 -39q74 -41 118 -111t44 -156q0 -88 -45.5 -158t-121.5 -109.5t-162 -39.5t-158.5 40.5t-115.5 111.5q-44 72 -44 158zM606 1207q0 98 -55 163.5t-151 65.5q-99 0 -152 -68t-53 -170q0 -64 23 -115t69 -81.5t111 -30.5
q97 0 152.5 68.5t55.5 167.5zM637 742q49 0 68.5 -7t19.5 -32q0 -35 -84 -35h-469q-52 0 -74 6.5t-22 28.5q0 25 23 32t73 7h465z" />
    <glyph glyph-name="ordfeminine" unicode="&#xbb;" horiz-adv-x="697" 
d="M469 555q6 19 6 37q0 22 -6 37l-84 195q-22 60 -22 63q0 13 8.5 24t21.5 11q19 0 35.5 -19t34.5 -47l135 -198q37 -58 37 -72q0 -11 -33 -61l-139 -216l-18.5 -27t-22 -24.5t-26.5 -9.5q-13 0 -23 9t-10 22q0 9 22 69zM166 555q6 19 6 37q0 22 -6 37l-84 195
q-23 60 -23 63q0 13 8.5 24t22.5 11q25 0 70 -66l135 -198q37 -58 37 -72q0 -8 -33 -61l-139 -216l-20 -29t-20.5 -22.5t-27.5 -9.5q-12 0 -22.5 9t-10.5 22q0 9 23 69z" />
    <glyph glyph-name="questiondown" unicode="&#xc0;" horiz-adv-x="1475" 
d="M611 1401l25 47q14 25 27 45q13 21 26 34t24 13q25 0 56 -45t59 -94q66 -112 128 -239q63 -126 118.5 -256t104 -261t89.5 -260l80 -221q12 -30 25.5 -43t46.5 -31q34 -17 34 -45q0 -29 -22 -37t-60 -8h-254q-74 0 -74 47q0 26 26.5 39.5l52.5 26.5t26 41q0 20 -52.5 181
t-70.5 189h-665l-36 -101t-44 -133t-16 -87q0 -54 19 -73.5t55 -40t36 -44.5q0 -47 -76 -47q-10 0 -26 1t-21 1h-119q-4 0 -19 -1t-24 -1q-91 0 -91 49q0 27 33 50q31 21 43.5 35t20.5 42l73 211q58 164 131.5 348t153.5 356q80 173 157 312zM993 631q-139 375 -305 668
q-171 -309 -295 -668h600z" />
    <glyph glyph-name="exclamdown" unicode="&#xc1;" horiz-adv-x="1393" 
d="M1102 1499q24 0 55.5 -34.5t34.5 -59.5l25 -127q0 -33 -31 -33q-16 0 -60 43q-89 94 -243 104h-444q-34 0 -53 -19.5t-19 -47.5v-399q132 0 247 -8t221 -31t186 -63q86 -43 158 -106.5t114.5 -146.5t42.5 -178q0 -72 -23.5 -133t-69.5 -110q-46 -48 -110 -80
q-79 -42 -167.5 -56t-203.5 -14h-631q-33 0 -52 9t-19 38q0 25 14 34t42 18q37 11 51.5 18t14.5 27v1138q0 65 -11 85q-10 20 -56 36q-28 11 -38 19q-11 9 -11 30q0 30 19 39q20 8 55 8h962zM367 264q0 -55 9 -88t44 -53q37 -18 174 -18q26 0 64 1t45 1q89 0 158.5 12.5
t129.5 50.5q63 41 99 105.5t36 138.5q0 149 -109 240t-280 128t-370 37v-555z" />
    <glyph glyph-name="logicalnot" unicode="&#xc2;" horiz-adv-x="1393" 
d="M133 0q-33 0 -52 9t-19 38q0 23 13 32.5t38 17.5q38 11 53 23.5t18.5 31.5t3.5 65v1139q0 20 -16 27.5t-51 17.5q-31 8 -45 17.5t-14 33.5q0 47 75 47h666q186 0 281 -59q69 -42 109 -110t40 -146q0 -87 -48.5 -158t-122.5 -121t-161 -84q112 -17 213 -71t163.5 -142
t62.5 -202q0 -95 -49 -175q-50 -79 -134 -134q-143 -97 -383 -97h-641zM373 776q137 31 210 49q71 18 158.5 50.5t143.5 72.5q60 44 98 103t38 123q0 101 -57.5 149.5t-136.5 59.5t-196 11q-172 1 -221 -24q-37 -23 -37 -98v-47v-449zM373 264q0 -66 7.5 -95t35.5 -44
q45 -22 199 -22q223 0 346 61q76 37 121.5 100.5t45.5 145.5q0 146 -113.5 232t-272.5 114l-369 -94v-398z" />
    <glyph glyph-name="radical" unicode="&#xc3;" horiz-adv-x="1147" 
d="M367 146q0 -17 9.5 -26t26.5 -13.5l28 -7.5q29 -8 44 -17.5t15 -34.5q0 -29 -20.5 -38t-55.5 -9h-279q-73 0 -73 47q0 23 12 33q13 9 37 17q40 14 53 25t14.5 23.5t3.5 71.5v1139q0 21 -15.5 28t-50.5 17q-31 12 -44 21q-12 8 -12 32q0 29 19 37q20 8 54 8h908
q72 -11 90 -94l24 -127q-7 -33 -30 -33q-17 0 -60 43q-99 104 -244 104h-335q-119 0 -119 -54v-1192z" />
    <glyph glyph-name="florin" unicode="&#xc4;" horiz-adv-x="1475" 
d="M1338 105h22q27 0 39 -13t25.5 -71.5t13.5 -84.5q0 -8 4 -26q4 -17 4 -27q0 -43 -37 -43q-20 0 -67 41q-54 43 -83 61.5t-79 32.5q-80 25 -176 25h-590q-74 0 -170 -21q-57 -12 -92.5 -33t-91.5 -69q-2 -1 -17 -16q-16 -14 -26 -21q-11 -6 -23 -6q-41 0 -41 47q0 8 3 24
t3 23q0 48 14 112.5t46 64.5h24q27 0 52 19t30 38l66 229q56 197 157 455q102 257 211 455q13 21 13 37q0 41 -70 63q-33 12 -46 20.5t-13 32.5q0 30 20 37.5t55 7.5h826q71 0 71 -45q0 -36 -51 -51q-36 -11 -51 -22.5t-19 -32t-4 -66.5v-1118q0 -37 39 -55zM363 103h694
q33 14 40.5 34t7.5 80v1129q0 22 -21 34t-45 12h-236q-47 0 -78 -53l-125 -254t-125 -284q-67 -178 -124.5 -358t-57.5 -260t70 -80z" />
    <glyph glyph-name="approxequal" unicode="&#xc5;" 
d="M365 353q0 -93 11.5 -144t50.5 -77q39 -25 118 -25h307q73 0 130.5 28t117.5 84q29 27 44 39.5t32 12.5q15 0 24 -10t9 -25q0 -17 -3 -37t-10 -57t-8 -39q-10 -60 -16 -76q-5 -17 -21 -21.5t-65 -5.5h-955q-33 0 -52 9t-19 38q0 23 12 33q13 9 37 17q49 14 60 34.5
t11 85.5v1082q0 45 -12 71q-13 27 -53 33q-29 9 -42 18t-13 33q0 29 19 37q20 8 54 8h908q61 -14 73 -98l17 -125q-3 -33 -35 -33q-22 0 -35 17q-44 56 -107 94t-126 38h-330q-73 0 -103 -33.5t-30 -125.5v-373h394q49 0 78 8q30 7 58 33q27 27 45 27q43 0 43 -94
q0 -13 -1 -32q-1 -18 -1 -21q0 -50 -9 -70.5t-40 -20.5q-19 0 -45 27q-28 25 -50.5 30.5t-68.5 5.5h-403v-400z" />
    <glyph glyph-name="Delta" unicode="&#xc6;" horiz-adv-x="2171" 
d="M948 0q-73 0 -73 47q0 24 12 32q12 9 40 20l31 10t25.5 13.5t9.5 23.5v385l-217 235q-54 -51 -158 -183q-103 -133 -181 -258.5t-78 -178.5q0 -21 10 -31q11 -11 31 -21t30 -19q11 -10 11 -28q0 -47 -97 -47h-266q-72 0 -72 43q0 26 14 36.5t46 23.5q45 17 65 44
q21 27 47 85q75 158 186 316.5t238 295.5l52 53l-318 361q-52 63 -84.5 92t-91.5 57q-47 19 -47 53q0 39 78 39h301q65 0 65 -39q0 -23 -10.5 -34t-33 -20.5t-33.5 -21t-11 -36.5q0 -58 72 -139l452 -523v596q0 66 -10 84q-9 18 -57 37q-31 15 -40 22t-9 29q0 45 74 45h270
q74 0 74 -45q0 -22 -10 -30q-9 -7 -40 -21q-47 -19 -57 -37t-10 -84v-596l452 523q72 80 72 139q0 25 -11 36q-11 12 -33.5 21.5t-33 20t-10.5 34.5q0 27 17.5 33t48.5 6h301q77 0 77 -39q0 -34 -47 -53q-59 -28 -90.5 -56.5t-85.5 -92.5l-317 -361l51 -53
q83 -90 160.5 -190t145.5 -208q67 -107 118 -214q28 -59 48 -86q20 -26 65 -43l22 -8t19.5 -8.5t12.5 -12.5q5 -8 5 -23q0 -51 -72 -51h-266q-96 0 -96 47q0 18 10 27t30 19t31 21t11 32q0 42 -48 128t-118 184t-141.5 185t-110.5 123l-217 -235v-385q0 -15 9.5 -23.5
t25.5 -13.5l31 -10q28 -11 40 -19q13 -9 13 -33q0 -29 -20 -38q-19 -9 -54 -9h-275z" />
    <glyph glyph-name="guillemotleft" unicode="&#xc7;" horiz-adv-x="1270" 
d="M484 750q-76 0 -76 49q0 50 67 55q24 2 62 4.5l96 6.5q67 3 136 31.5t119 93.5t50 169q0 133 -85.5 202.5t-248.5 69.5q-81 0 -149.5 -33.5t-111.5 -71.5t-90 -87q-46 -49 -56 -49q-29 0 -38 13.5t-10 43.5q-1 29 -3 37q-2 10 -10.5 35.5t-8.5 34.5q0 20 37 51
q67 54 210.5 92.5t256.5 38.5q100 0 189 -24.5t160 -73t113 -119.5q40 -71 40 -160q0 -128 -100.5 -217.5t-237.5 -122.5q107 -18 198.5 -65.5t149.5 -131.5q57 -83 57 -198q0 -118 -48.5 -205.5t-133.5 -142.5t-195 -80q-109 -26 -237 -26q-102 0 -209.5 32t-194.5 102
q-88 71 -124 179q-11 33 -11 55q0 53 29 58q32 0 50 -11t27.5 -26t51.5 -88q55 -94 154 -146.5t215 -52.5q193 0 310.5 89.5t117.5 254.5q0 107 -51.5 179.5t-135.5 109t-182 39.5z" />
    <glyph glyph-name="guillemotright" unicode="&#xc8;" horiz-adv-x="1639" 
d="M369 146q0 -14 10 -23t25.5 -14l30.5 -10q29 -10 42 -19t13 -33q0 -29 -20 -38q-19 -9 -54 -9h-283q-33 0 -53 9t-20 38q0 23 13 33q14 9 40 17q49 14 61 35q10 20 10 85v1137q0 22 -16 29.5t-49 17.5q-33 12 -46 20.5t-13 32.5q0 30 20 37.5t55 7.5h283q72 0 72 -45
q0 -23 -11.5 -32t-37.5 -19q-52 -17 -61 -36q-11 -20 -11 -85v-870l886 887v57q0 30 -67 45q-31 11 -44 20t-13 33q0 45 71 45h291q72 0 72 -45q0 -36 -51 -51q-37 -11 -51.5 -22.5t-18.5 -32t-4 -66.5v-1118q0 -22 8.5 -33.5t30.5 -21.5l22 -10l19 -11q27 -13 36 -19t9 -22
q0 -29 -19 -38t-53 -9h-289q-34 0 -54 9q-19 9 -19 38q0 23 13 32.5t38 17.5q51 14 62 34.5t11 85.5v930l-886 -887v-114z" />
    <glyph glyph-name="ellipsis" unicode="&#xc9;" horiz-adv-x="1639" 
d="M1100 1778q0 -61 -51 -125q-85 -107 -230 -107q-125 0 -210 72q-39 32 -69 76.5t-30 83.5q0 19 12.5 33t30.5 14t35.5 -25.5t46 -63.5t73 -61.5t113.5 -23.5q50 0 101 28.5t80 71.5q20 35 32 49q12 15 33 15q33 0 33 -37zM369 146q0 -14 10 -23t25.5 -14l30.5 -10
q29 -10 42 -19t13 -33q0 -29 -20 -38q-19 -9 -54 -9h-283q-33 0 -53 9t-20 38q0 23 13 33q14 9 40 17q49 14 61 35q10 20 10 85v1137q0 22 -16 29.5t-49 17.5q-33 12 -46 20.5t-13 32.5q0 30 20 37.5t55 7.5h283q72 0 72 -45q0 -23 -11.5 -32t-37.5 -19q-52 -17 -61 -36
q-11 -20 -11 -85v-870l886 887v57q0 30 -67 45q-31 11 -44 20t-13 33q0 45 71 45h291q72 0 72 -45q0 -36 -51 -51q-37 -11 -51.5 -22.5t-18.5 -32t-4 -66.5v-1118q0 -22 8.5 -33.5t30.5 -21.5l22 -10l19 -11q27 -13 36 -19t9 -22q0 -29 -19 -38t-53 -9h-289q-34 0 -54 9
q-19 9 -19 38q0 23 13 32.5t38 17.5q51 14 62 34.5t11 85.5v930l-886 -887v-114z" />
    <glyph glyph-name="nonbreakingspace" unicode="&#xca;" horiz-adv-x="1434" 
d="M371 146q0 -15 9.5 -23.5t25.5 -13.5l31 -10q28 -11 40 -19q13 -9 13 -33q0 -29 -20 -38t-54 -9h-283q-34 0 -54 9q-19 9 -19 38q0 23 13 33q14 9 40 17q51 14 62 34.5t11 85.5v1139q0 29 -65 45q-33 11 -46 20t-13 33q0 45 71 45h281q74 0 74 -45q0 -22 -10 -30t-39 -21
q-39 -17 -51 -27t-14 -24.5t-3 -69.5v-596l349 330l185 193l39 42q23 26 38 51q16 25 16 46q0 25 -14 36.5t-41.5 21t-40.5 20.5t-13 34q0 27 17.5 33t48.5 6h301q77 0 77 -39q0 -34 -47 -53q-59 -28 -90.5 -56.5t-85.5 -92.5l-338 -361l52 -53q317 -342 444 -612
q28 -59 48 -86q20 -26 65 -43q30 -12 44.5 -22.5t14.5 -37.5q0 -43 -72 -43h-266q-96 0 -96 47q0 18 10 27t30 19t31 21t11 32q0 54 -84.5 182t-193.5 262t-167 188l-272 -247v-385z" />
    <glyph glyph-name="Agrave" unicode="&#xcb;" horiz-adv-x="1434" 
d="M504 1301q12 21 12 37q0 41 -69 63q-34 12 -47 21t-13 32q0 30 20.5 37.5t55.5 7.5h825q72 0 72 -45q0 -23 -12 -33t-39 -18q-50 -14 -62 -35t-12 -86v-1118q0 -37 39 -55l41 -21q27 -13 36 -19t9 -22q0 -29 -19 -38t-53 -9h-288q-35 0 -55 9q-19 9 -19 38q0 22 13 32
t38 18q51 14 62 34.5t11 85.5v1129q0 22 -21 34t-46 12h-235q-26 0 -42.5 -10t-35.5 -43l-124 -252t-126 -286q-182 -485 -182 -618q0 -44 17 -56t67 -37q49 -24 49 -51q0 -41 -59 -41h-277q-26 0 -38 4.5t-12 24.5q0 36 38 67q33 28 47 68l65 229q56 197 158 455.5
t211 454.5z" />
    <glyph glyph-name="Atilde" unicode="&#xcc;" horiz-adv-x="1762" 
d="M1092 942l198 471q18 45 31 66q14 20 45 20h264q31 0 44 -9q14 -9 14 -42q0 -31 -55 -45q-54 -13 -68 -32q-16 -18 -16 -74v-1151q0 -11 7.5 -19t17.5 -13q10 -4 25.5 -8.5t25.5 -6.5q32 -9 46 -17q15 -8 15 -35q0 -29 -20 -38q-19 -9 -54 -9h-276q-72 0 -72 47
q0 23 10.5 31.5t36.5 18.5q37 14 48 25.5t11 35.5q0 5 -1 24.5t-1 34.5v1073l-295 -688l-153 -317q-44 -90 -76 -90q-21 0 -34 16q-12 15 -27 45l-220 469l-200 496l-41 102v-1169q2 -13 9.5 -22t16.5 -14t22.5 -9.5l27.5 -9.5q32 -11 48.5 -21t16.5 -37q0 -41 -55 -41h-246
q-37 0 -55.5 8t-18.5 37q0 23 12 32.5t37 19.5q32 12 45 22t16 25.5t3 54.5v1130q0 52 -18.5 62t-66.5 22q-48 13 -48 41q0 45 55 45h273q23 0 38 -17t26 -44.5l19 -46.5l386 -920z" />
    <glyph glyph-name="Otilde" unicode="&#xcd;" horiz-adv-x="1639" 
d="M369 146q0 -14 10 -23t25.5 -14l30.5 -10q29 -10 42 -19t13 -33q0 -29 -20 -38q-19 -9 -54 -9h-283q-33 0 -53 9t-20 38q0 23 13 33q14 9 40 17q49 14 61 35q10 20 10 85v1137q0 22 -16 29.5t-49 17.5q-33 12 -46 20.5t-13 32.5q0 30 20 37.5t55 7.5h283q72 0 72 -45
q0 -23 -11.5 -32t-37.5 -19q-52 -17 -61 -36q-11 -20 -11 -85v-413h886v487q0 30 -67 45q-31 11 -44 20t-13 33q0 45 71 45h291q72 0 72 -45q0 -36 -51 -51q-37 -11 -51.5 -22.5t-18.5 -32t-4 -66.5v-1118q0 -22 8.5 -33.5t30.5 -21.5l22 -10l19 -11q27 -13 36 -19t9 -22
q0 -29 -19 -38t-53 -9h-289q-34 0 -54 9q-19 9 -19 38q0 23 13 32.5t38 17.5q51 14 62 34.5t11 85.5v545h-886v-616z" />
    <glyph glyph-name="OE" unicode="&#xce;" horiz-adv-x="1639" 
d="M277 187q-201 211 -201 555q0 161 51 304t148 252.5t233 170.5t301 61q154 0 293 -58q140 -58 244 -167q71 -73 118 -164q47 -90 68 -190t21 -207q0 -217 -96.5 -394.5t-270.5 -279t-391 -101.5q-98 0 -191 24q-93 25 -176 73.5t-151 120.5zM1217 293q126 177 126 440
q0 132 -31 256q-30 125 -97 218q-72 100 -179 157q-106 57 -227 57q-126 0 -232 -64t-175 -175q-117 -180 -117 -438q0 -269 127 -453q70 -101 172 -158t221 -57q123 0 230 57.5t182 159.5z" />
    <glyph glyph-name="oe" unicode="&#xcf;" horiz-adv-x="1639" 
d="M441 1392q-38 -12 -52 -21.5t-17 -26t-3 -62.5v-1136q0 -14 10 -23t25.5 -14l30.5 -10q29 -10 42 -19t13 -33q0 -29 -20 -38q-19 -9 -54 -9h-283q-33 0 -53 9t-20 38q0 23 13 33q14 9 40 17q49 14 61 35q10 20 10 85v1137q0 22 -16 29.5t-49 17.5q-33 12 -46 20.5
t-13 32.5q0 30 20 37.5t55 7.5h1358q72 0 72 -45q0 -36 -51 -51q-37 -11 -51.5 -22.5t-18.5 -32t-4 -66.5v-1118q0 -22 8.5 -33.5t30.5 -21.5l22 -10l19 -11q27 -13 36 -19t9 -22q0 -29 -19 -38t-53 -9h-289q-34 0 -54 9q-19 9 -19 38q0 23 13 32.5t38 17.5q51 14 62 34.5
t11 85.5v1129q0 22 -21 34t-46 12h-747z" />
    <glyph glyph-name="emdash" unicode="&#xd0;" horiz-adv-x="1270" 
d="M367 144q0 -30 72 -45q30 -8 45 -17q16 -10 16 -35q0 -29 -20 -38t-54 -9h-286q-35 0 -55 9q-19 9 -19 38q0 23 11 31q11 9 38 19q46 17 56.5 36t10.5 84v1139q0 21 -15.5 28t-50.5 17q-29 9 -43 18q-13 9 -13 33q0 47 71 47h533q115 0 204 -14t166 -55
q98 -49 150.5 -132t52.5 -192q0 -94 -42.5 -177t-114 -146.5t-158.5 -106.5q-116 -57 -252.5 -79t-302.5 -24v-429zM367 680q157 0 307.5 39.5t252.5 130.5q100 91 100 236q0 75 -35.5 138.5t-98.5 104.5q-59 38 -129 50q-70 13 -160 13q-133 1 -184 -26q-35 -19 -44 -48.5
t-9 -82.5v-555z" />
    <glyph glyph-name="endash" unicode="&#xd1;" horiz-adv-x="1475" 
d="M1403 1125q0 -70 -51 -70q-15 0 -26.5 13t-20 31.5l-15.5 33.5q-38 78 -70.5 124t-88.5 87q-115 81 -264 81q-250 0 -422 -212q-162 -199 -162 -459q0 -117 33 -242.5t94 -212.5q151 -213 444 -213q129 0 230.5 49.5t201.5 149.5q7 6 21 22q15 16 28 24.5t29 8.5
q20 0 32.5 -14t12.5 -35q0 -44 -73 -112t-132 -103q-80 -51 -181 -79q-100 -28 -202 -28q-151 0 -288 54q-136 54 -239 151q-103 98 -162 231t-59 287q0 165 61 317q62 152 171.5 269.5t256 184.5t313.5 67q205 0 391 -96q97 -56 113 -78q21 -31 24 -84v-147z" />
    <glyph glyph-name="quotedblleft" unicode="&#xd2;" horiz-adv-x="1311" 
d="M746 146q0 -20 16 -28.5t50 -18.5q29 -10 43 -19t14 -33q0 -29 -20 -38q-19 -9 -54 -9h-285q-74 0 -74 47q0 22 14 32t40 18q49 14 60 34.5t11 85.5v1051q0 56 -5 80.5t-24 35t-61 10.5q-74 0 -170 -20q-58 -12 -92 -33q-34 -20 -92 -69l-20.5 -19t-22.5 -17
q-11 -7 -23 -7q-41 0 -41 47q0 12 3 26t4 21q2 24 7.5 67t17.5 76t34 33h1137q31 -4 39 -12q20 -22 38 -156q9 -30 9 -53q0 -43 -37 -43q-22 0 -68 41q-55 44 -83 62t-79 32q-79 24 -176 24q-55 0 -77.5 -10.5t-27.5 -36.5t-5 -91v-1110z" />
    <glyph glyph-name="quotedblright" unicode="&#xd3;" horiz-adv-x="1434" 
d="M145 1286q-21 93 -80 125l-21.5 15t-16.5 14.5t-7 17.5q0 28 16 36q14 7 50 7h289q63 0 66 -38q0 -20 -29 -43.5t-47 -48.5q-17 -26 -17 -89q9 -69 58 -210t86 -214q52 -102 146 -186q94 -86 171 -86q70 0 117.5 60t97.5 165q141 301 148 443q0 84 -23 131.5t-48 63.5
t-36 16q2 24 16 30t46 6h235q62 0 62 -32q0 -20 -8 -33q-3 -4 -23 -26t-29 -39q-10 -16 -20 -52q-31 -110 -72 -225t-91.5 -234t-106.5 -229q-55 -111 -119 -221q-73 -126 -156 -225.5t-193 -163.5t-243 -64q-60 0 -104 23q-44 24 -44 71q3 32 34 57t69 25q24 0 70.5 -9
t74.5 -9q114 0 220 114q107 115 179 248q-36 -12 -79 -12q-105 0 -219.5 65.5t-190.5 178.5q-43 64 -85.5 154t-80.5 201q-37 110 -62 222z" />
    <glyph glyph-name="quoteleft" unicode="&#xd4;" horiz-adv-x="1843" 
d="M783 0q-11 -10 -25 -10q-18 0 -34 17q-15 17 -15 40q0 24 13 33t42 19l30 10t25 14t10 23v118q-88 0 -141 5q-127 15 -243 58t-207 111t-145 160q-53 92 -53 201q0 163 90.5 263.5t264.5 146t434 45.5v57q0 45 -11.5 61.5t-59.5 30.5q-27 10 -38 19t-11 32q0 45 72 45
h282q72 0 72 -45q0 -23 -11.5 -32t-37.5 -19q-49 -14 -60.5 -30.5t-11.5 -61.5v-57q260 0 434 -45.5t264 -146t90 -263.5q0 -109 -53 -201.5t-144 -159.5q-90 -68 -207 -111q-116 -43 -243 -58q-42 -3 -80 -4q-39 -1 -61 -1v-118q0 -15 10 -23.5t25 -13.5l31 -10
q28 -10 41.5 -19t13.5 -33q0 -23 -16 -40q-15 -17 -33 -17q-15 0 -25 10h-278zM829 1145q-224 0 -352.5 -48.5t-177.5 -129t-49 -189.5q0 -112 89 -205q90 -94 225 -147q136 -53 265 -53v772zM1014 373q130 0 265.5 53t225.5 147q88 93 88 205q0 109 -48 190
q-50 80 -178 128.5t-353 48.5v-772z" />
    <glyph glyph-name="quoteright" unicode="&#xd5;" horiz-adv-x="1434" 
d="M649 623q-94 -121 -203 -276q-108 -155 -108 -203q0 -28 23 -40l46 -25q23 -12 23 -40q0 -25 -17.5 -32t-47.5 -7h-262q-40 0 -63.5 7t-23.5 32q0 28 17 37t61 23q41 15 68 47t61 88l140 198l225 303q-121 129 -223 273t-203 317q-35 60 -80 78q-33 13 -47.5 24t-14.5 36
q0 36 68 36h287q72 0 72 -32q0 -17 -7 -23t-26 -16q-30 -17 -41 -27t-11 -35q0 -70 110 -209t237 -278l190 235l46.5 58.5t45 61.5t38.5 65t16 53q0 28 -15.5 42t-44.5 25t-43 21t-14 31q0 28 53 28h297q66 0 66 -34q0 -32 -43 -52q-48 -17 -73 -45q-20 -24 -103 -151
l-326 -424q130 -137 224 -248t166 -229l65 -109q32 -48 54 -69q23 -21 69 -37q57 -21 57 -58q0 -43 -66 -43h-315q-68 0 -68 39q0 21 12 30.5t37.5 20t37.5 19.5t12 26q0 51 -166 250q-167 200 -244 267z" />
    <glyph glyph-name="divide" unicode="&#xd6;" horiz-adv-x="1639" 
d="M135 0q-33 0 -53 9t-20 38q0 23 13 33q14 9 40 17q49 14 61 35q10 20 10 85v1137q0 22 -16 29.5t-49 17.5q-33 12 -46 20.5t-13 32.5q0 30 20 37.5t55 7.5h283q72 0 72 -45q0 -23 -11.5 -32t-37.5 -19q-52 -17 -61 -36q-11 -20 -11 -85v-1134q0 -17 14 -29q15 -12 35 -12
h774q21 0 42 24q21 25 21 86v1139q0 21 -21.5 33t-45.5 12q-31 11 -44 20t-13 33q0 45 71 45h291q72 0 72 -45q0 -36 -51 -51q-50 -14 -62 -35t-12 -86v-1118q0 -29 14.5 -41t24.5 -14l31 -4q26 0 39 -13t25.5 -71.5t12.5 -84.5q0 -8 5 -26q4 -17 4 -27q0 -43 -37 -43
q-21 0 -68 41q-53 43 -82 61.5t-80 32.5q-79 25 -176 25h-1020z" />
    <glyph glyph-name="lozenge" unicode="&#xd7;" horiz-adv-x="1475" 
d="M163 930q0 97 8 227t13 197q0 26 -65 47q-33 12 -46 20.5t-13 32.5q0 30 20 37.5t55 7.5h283q72 0 72 -45q0 -23 -11.5 -32t-37.5 -19q-50 -16 -59.5 -36t-12.5 -85q-5 -57 -13 -165t-8 -187q0 -120 97 -193t252 -73q117 0 230 50t164 83v559q0 30 -67 45
q-32 12 -44.5 21t-12.5 32q0 45 72 45h290q72 0 72 -45q0 -23 -12 -33t-39 -18q-50 -14 -62 -35t-12 -86v-1118q0 -22 9 -34q8 -11 30 -21l23 -10l18 -11q27 -13 36 -19t9 -22q0 -29 -19 -38t-53 -9h-288q-35 0 -55 9q-19 9 -19 38q0 23 13 32.5t38 17.5q51 14 62 34.5
t11 85.5v463q-24 -15 -86 -46q-62 -30 -168 -62q-105 -32 -214 -32q-128 0 -232.5 46.5t-166 135.5t-61.5 208z" />
    <glyph glyph-name="ydieresis" unicode="&#xd8;" horiz-adv-x="1966" 
d="M842 107q29 11 35.5 30.5t6.5 79.5v1139q0 20 -15.5 27.5t-49.5 17.5q-32 12 -44.5 20.5t-12.5 32.5q0 30 19.5 37.5t54.5 7.5h282q72 0 72 -45q0 -23 -11 -32t-38 -19q-49 -14 -60.5 -34.5t-11.5 -86.5v-1136q0 -23 41 -39h412q32 0 47.5 22t15.5 88v1139q0 21 -21.5 33
t-45.5 12q-32 12 -45 21t-13 32q0 45 72 45h291q72 0 72 -45q0 -23 -12.5 -33t-39.5 -18q-50 -14 -61.5 -35t-11.5 -86v-1118q0 -22 9 -34q8 -11 30 -21l22 -10l19 -11q27 -13 36 -19t9 -22q0 -23 -19 -41.5t-37 -18.5q-12 0 -16 13h-238h-1214h-235q-4 -13 -17 -13
q-18 0 -37.5 19t-19.5 41q0 23 13 33q14 9 40 17q49 14 61 35q10 20 10 85v1137q0 22 -16 29.5t-49 17.5q-33 12 -46 20.5t-13 32.5q0 30 20 37.5t55 7.5h283q72 0 72 -45q0 -23 -11.5 -32t-37.5 -19q-52 -17 -61 -36q-11 -20 -11 -85v-1134q0 -17 14 -29q15 -12 35 -12h422
z" />
    <glyph glyph-name="Ydieresis" unicode="&#xd9;" horiz-adv-x="1966" 
d="M135 0q-33 0 -53 9t-20 38q0 23 13 33q14 9 40 17q49 14 61 35q10 20 10 85v1137q0 22 -16 29.5t-49 17.5q-33 12 -46 20.5t-13 32.5q0 30 20 37.5t55 7.5h283q72 0 72 -45q0 -23 -11.5 -32t-37.5 -19q-52 -17 -61 -36q-11 -20 -11 -85v-1134q0 -17 14 -29q15 -12 35 -12
h422q29 11 35.5 30.5t6.5 79.5v1139q0 20 -15.5 27.5t-49.5 17.5q-32 12 -44.5 20.5t-12.5 32.5q0 30 19.5 37.5t54.5 7.5h282q72 0 72 -45q0 -23 -11 -32t-38 -19q-49 -14 -60.5 -34.5t-11.5 -86.5v-1136q0 -17 12.5 -28t28.5 -11h412q32 0 47.5 22t15.5 88v1139
q0 21 -21.5 33t-45.5 12q-32 12 -45 21t-13 32q0 45 72 45h291q72 0 72 -45q0 -23 -12.5 -33t-39.5 -18q-50 -14 -61.5 -35t-11.5 -86v-1118q0 -29 15 -41t24 -14l31 -4q27 0 39 -13t25 -71.5t13 -84.5q0 -8 4 -27q4 -18 4 -26q0 -43 -36 -43q-21 0 -68 41
q-54 43 -82.5 61.5t-79.5 32.5q-79 25 -176 25h-1348z" />
    <glyph glyph-name="fraction" unicode="&#xda;" horiz-adv-x="1516" 
d="M340 1395q-56 0 -108 -16q-61 -20 -95.5 -41t-89.5 -66q-7 -6 -19 -17.5t-23.5 -18.5t-23.5 -7q-41 0 -41 47q0 9 3.5 24t3.5 23q1 5 13 57t28 85.5t39 33.5h350h287q74 0 74 -47q0 -24 -15 -33.5t-47 -17.5q-23 0 -47.5 -22t-24.5 -43v-410q349 0 556 -102
q86 -43 158 -106.5t114.5 -146.5t42.5 -178q0 -108 -52.5 -190.5t-150.5 -132.5q-80 -42 -168 -56t-203 -14h-532q-33 0 -52.5 9t-19.5 38q0 25 14 34.5t43 17.5q36 10 50.5 17.5t14.5 27.5v1138q0 58 -13 85q-15 28 -66 28zM604 264q0 -53 9 -82t45 -49q51 -26 184 -26
q89 0 158.5 12.5t130.5 50.5q62 41 98 105t36 139q0 113 -64 193q-63 80 -163 126q-99 46 -214 66t-220 20v-555z" />
    <glyph glyph-name="currency" unicode="&#xdb;" horiz-adv-x="1802" 
d="M1431 1356q0 21 -16 28t-49 17q-32 12 -44.5 21t-12.5 32q0 30 19 38q20 7 55 7h282q72 0 72 -45q0 -23 -11.5 -32t-37.5 -19q-40 -12 -53.5 -23.5t-15.5 -27.5q-2 -15 -3 -70v-1136q0 -14 10 -23t25.5 -14l30.5 -10q28 -10 41.5 -19t13.5 -33q0 -29 -19.5 -38t-54.5 -9
h-282q-34 0 -54 9t-20 38q0 23 13 33q14 9 40 17q49 14 61 35q10 20 10 85v1139zM367 926q100 -1 195 -10q96 -8 187 -30q92 -22 173 -62q87 -43 158.5 -106.5t114 -146.5t42.5 -178q0 -108 -52.5 -191t-150.5 -132q-79 -42 -167 -56t-203 -14h-533q-33 0 -52 9t-19 38
q0 25 14 34t42 18q37 11 51.5 18t14.5 27v1138q0 65 -11 85q-10 20 -56 36q-28 11 -38 19q-11 9 -11 30q0 30 19 39q20 8 55 8h286q74 0 74 -47q0 -24 -15 -33.5t-46 -17.5q-72 -16 -72 -45v-430zM367 264q0 -53 9 -82t44 -49q51 -26 184 -26q90 0 159 13q70 12 130 50
q62 41 99 105q35 64 35 139q0 144 -100 235q-102 91 -252.5 130.5t-307.5 39.5v-555z" />
    <glyph glyph-name="guilsinglleft" unicode="&#xdc;" horiz-adv-x="1270" 
d="M367 926q100 -1 195 -10q96 -8 187 -30q92 -22 173 -62q87 -43 158.5 -106.5t114 -146.5t42.5 -178q0 -108 -52.5 -191t-150.5 -132q-79 -42 -167 -56t-203 -14h-533q-33 0 -52 9t-19 38q0 25 14 34t42 18q37 11 51.5 18t14.5 27v1138q0 65 -11 85q-10 20 -56 36
q-28 11 -38 19q-11 9 -11 30q0 30 19 39q20 8 55 8h286q74 0 74 -47q0 -24 -15 -33.5t-46 -17.5q-72 -16 -72 -45v-430zM367 264q0 -53 9 -82t44 -49q51 -26 184 -26q90 0 159 13q70 12 130 50q62 41 99 105q35 64 35 139q0 144 -100 235q-102 91 -252.5 130.5t-307.5 39.5
v-555z" />
    <glyph glyph-name="guilsinglright" unicode="&#xdd;" horiz-adv-x="1475" 
d="M1186 842q-21 205 -158 371q-87 107 -188.5 159.5t-233.5 52.5q-149 0 -264 -81q-56 -41 -88.5 -87t-70.5 -124l-15.5 -33.5t-20.5 -31.5q-11 -13 -26 -13q-52 0 -52 70v147q0 47 25 84q16 22 113 78q186 96 391 96q167 0 314 -67t256.5 -184.5t170 -269.5t60.5 -317
q0 -154 -58 -287t-161.5 -231t-239.5 -151.5t-288 -53.5q-215 0 -383 107q-34 20 -83 59t-86 82.5t-37 73.5q0 21 14 35q12 14 32 14q16 0 29 -8.5t27.5 -24.5t21.5 -22q100 -100 201.5 -149.5t230.5 -49.5q293 0 444 213q61 87 94 203t33 227h-741q-31 0 -47.5 16t-16.5 40
q0 23 17 40t47 17h737z" />
    <glyph glyph-name="fi" unicode="&#xde;" horiz-adv-x="2130" 
d="M578 760l-209 2v-616q0 -14 10 -23t25.5 -14l30.5 -10q29 -10 42 -19t13 -33q0 -29 -20 -38q-19 -10 -54 -10h-283q-33 0 -53 9.5t-20 38.5q0 23 13 33q14 9 40 17q49 14 61 35q10 20 10 85v1137q0 22 -16 29.5t-49 17.5q-33 11 -46 20t-13 33q0 30 20 37.5t55 7.5h283
q72 0 72 -45q0 -23 -11.5 -32t-37.5 -19q-52 -17 -61 -36q-11 -20 -11 -85v-413l215 -2q19 142 77.5 262t153 210.5t221 140.5t275.5 50q101 0 197.5 -25.5t182.5 -75.5t157 -124q206 -212 206 -561q0 -217 -96 -395q-96 -177 -270 -278.5t-391 -101.5q-149 0 -282.5 55.5
t-236.5 162.5q-200 212 -200 555v18zM1718 293q126 176 126 440q0 83 -13 168q-12 84 -41.5 164t-73.5 142q-72 100 -178.5 157t-226.5 57q-126 0 -231.5 -64t-176.5 -175q-116 -179 -116 -438q0 -270 127 -453q69 -100 171 -157.5t222 -57.5q122 0 229.5 57.5t181.5 159.5z
" />
    <glyph glyph-name="fl" unicode="&#xdf;" horiz-adv-x="1393" 
d="M1022 643l-332 60q-49 -51 -127 -163t-136 -220.5t-58 -159.5q0 -26 13 -38.5t39 -24.5q27 -12 39.5 -22t12.5 -32q0 -43 -82 -43h-303q-31 0 -50 7.5t-19 33.5q0 22 11 29t42 20q44 20 63.5 44.5t42.5 76.5q79 173 153 302q73 130 169 239q-148 67 -242 165t-94 238
q0 175 154 273q107 71 305 71h637q35 0 54 -8t19 -39q0 -24 -14 -33.5t-44 -17.5q-36 -10 -52 -18t-16 -29v-1137q1 -54 3 -69.5t15 -26.5q14 -12 53 -24q27 -10 39 -19t12 -33q0 -28 -20 -36.5t-53 -8.5h-275q-36 0 -56 8t-20 37q0 24 10 31t44 23l31 9.5t23 13t9 22.5v499
zM1022 1239q0 101 -37 127t-184 26q-428 1 -428 -261q0 -106 65.5 -176.5t164.5 -109t231.5 -62.5t187.5 -33v489z" />
    <glyph glyph-name="daggerdbl" unicode="&#xe0;" horiz-adv-x="1024" 
d="M879 252q0 -100 14 -131q14 -21 53 -33q43 -11 43 -43q0 -29 -22.5 -37.5t-58.5 -8.5h-91q-34 0 -50 10.5t-20.5 32.5t-4.5 69v51q-122 -193 -342 -193q-93 0 -172.5 33.5t-128.5 99.5t-49 160q0 179 176 289q145 94 372 94l125 -6q-5 74 -45 129.5t-103.5 85.5
t-135.5 30q-57 0 -93 -11q-35 -11 -90 -43l-31 -20t-29 -14q-16 -5 -32 -5q-58 0 -58 51q0 45 83 88q112 53 250 53q186 0 309 -96q131 -103 131 -305v-330zM633 553q-96 0 -192.5 -27.5t-161 -90.5t-64.5 -162q0 -84 54 -131q63 -58 147 -58q61 0 123 21t104 57
q49 41 65.5 92.5t16.5 126.5v166z" />
    <glyph glyph-name="periodcentered" unicode="&#xe1;" horiz-adv-x="1147" 
d="M191 795q48 53 110 96t133.5 67.5t141.5 24.5q135 0 252.5 -66.5t186.5 -182t69 -250.5q0 -144 -69 -262q-68 -118 -188 -185t-262 -67q-138 0 -253 70t-181 195q-68 125 -68 281q0 158 25.5 295t72.5 235t110 152q67 58 145.5 84t197.5 48q120 22 175 44q71 28 94 103
q10 31 49 31q19 0 31 -10q12 -9 12 -27q0 -84 -60.5 -159t-164.5 -103l-275 -74q-140 -36 -212 -134t-72 -206zM834 203q85 111 85 283q0 107 -40 198t-119 144.5t-188 53.5q-114 0 -191.5 -57.5t-114.5 -152.5q-38 -94 -38 -205q0 -168 89 -282.5t251 -114.5q77 0 148 36
q70 34 118 97z" />
    <glyph glyph-name="quotesinglbase" unicode="&#xe2;" horiz-adv-x="1024" 
d="M58 43q0 38 49 47q55 13 55 60v669q0 28 -15.5 44t-33.5 18q-55 4 -55 45q0 29 14.5 36t50.5 7h488q126 0 196 -39h2q48 -28 77 -74t29 -100q0 -132 -186 -223q108 -25 183 -93.5t75 -170.5q0 -125 -129 -207q-100 -62 -266 -62h-471q-63 0 -63 43zM336 105
q25 -13 148 -13q147 0 227 37q103 50 103 142q0 84 -70 134.5t-172 67.5l-256 -55v-238q0 -65 20 -75zM658 621q37 24 61 59q25 35 25 70q0 83 -65 104t-183 21q-137 0 -164 -15q-16 -8 -16 -77v-261q147 29 220 47.5t122 51.5z" />
    <glyph glyph-name="quotedblbase" unicode="&#xe3;" horiz-adv-x="817" 
d="M367 92q27 -6 40 -14.5t13 -34.5q0 -43 -63 -43h-240q-32 0 -45.5 8t-13.5 35q0 43 49 47q21 2 38 18.5t17 41.5v659q0 35 -14.5 51t-50.5 20.5t-39 41.5q0 47 41 47h659q30 0 37 -12q11 -16 23 -68t12 -74q0 -15 -11 -28t-28 -13q-11 0 -20 4t-20 14q-10 9 -13 11
q-54 41 -105 55q-57 17 -256 17q-37 0 -49 -20t-12 -54v-651q0 -41 51 -58z" />
    <glyph glyph-name="perthousand" unicode="&#xe4;" horiz-adv-x="1065" 
d="M994 80q20 -21 29 -68t9 -72q0 -15 -10.5 -28t-27.5 -13q-12 0 -22.5 5t-18.5 12q-7 6 -15 12q-51 39 -100 55q-50 17 -121 17h-422q-135 0 -225 -74q-8 -7 -18 -14q-9 -8 -18.5 -12.5t-20.5 -4.5q-20 0 -32 13.5t-12 31.5q0 45 12 97.5t52 54.5q53 4 68 52
q117 403 280 682q4 8 4 14q0 15 -13 27t-30 12q-20 0 -36.5 12t-16.5 35q0 43 66 43h589q64 0 64 -43q0 -33 -45 -51q-32 -13 -43.5 -21t-11.5 -35v-679q0 -26 12.5 -33.5t38 -11.5t35.5 -15zM699 92q23 0 38.5 17t15.5 41v674q0 49 -54 49h-136q-22 0 -55 -41
q-69 -91 -133 -235.5t-102.5 -277.5t-38.5 -190q0 -37 53 -37h412z" />
    <glyph glyph-name="Acircumflex" unicode="&#xe5;" horiz-adv-x="1024" 
d="M232 357q22 -123 117.5 -197t222.5 -74q77 0 135.5 24t104.5 63.5t70 62t42 22.5q16 0 27 -10q12 -11 12 -27q0 -37 -41 -82q-42 -44 -88 -75q-139 -95 -295 -95q-133 0 -244 61q-111 59 -175 165.5t-64 240.5q0 148 72 274t197 199.5t273 73.5q125 0 209 -53
q56 -35 91.5 -90t35.5 -117q0 -186 -246 -280q-87 -34 -169 -48t-246 -34zM223 451q138 13 250 35.5t204 82.5t92 164q0 78 -51 117t-130 39q-120 0 -203.5 -59.5t-124.5 -160.5q-41 -100 -41 -218h4z" />
    <glyph glyph-name="Ecircumflex" unicode="&#xe6;" horiz-adv-x="1475" 
d="M615 0q-21 0 -37.5 13.5t-16.5 33.5q0 25 37 45q32 0 49 31q14 31 14 131v105l-151 143q-37 -33 -94 -109q-57 -75 -99 -151.5t-42 -116.5q0 -13 7 -20t24.5 -17.5t26.5 -20t9 -26.5q0 -41 -57 -41h-234q-29 0 -40 8t-11 37t37 47q24 13 35 24t25 38q88 151 160 252
q72 102 163 188l-27 27l-81 104q-80 84 -105.5 108.5t-83.5 49.5q-47 20 -47 53q0 22 13.5 27.5t39.5 5.5h240q49 0 49 -31q0 -19 -29.5 -41.5t-29.5 -46.5q0 -59 110.5 -184t191.5 -189v238q0 100 -14 131q-16 31 -49 31q-22 14 -29 20q-8 7 -8 25q0 21 15.5 34t38.5 13
h247q23 0 38 -13q16 -13 16 -34q0 -24 -37 -45q-33 0 -49 -31q-15 -31 -15 -131v-238q84 65 193.5 188.5t109.5 184.5q0 24 -30 47q-29 22 -29 41q0 31 49 31h240q26 0 39.5 -5.5t13.5 -27.5q0 -33 -47 -53q-32 -14 -55 -29t-43 -34t-45 -46l-45 -49l-82 -104l-27 -27
q93 -87 165 -190q73 -104 159 -250q16 -29 25 -39t34 -23q37 -18 37 -47t-11 -37t-40 -8h-234q-57 0 -57 41q0 16 8.5 26t26 20t25 17t7.5 21q0 39 -41.5 115.5t-98.5 152.5t-95 109l-152 -143v-105q0 -100 15 -131q17 -31 49 -31q37 -20 37 -45q0 -21 -16 -34t-38 -13h-247
z" />
    <glyph glyph-name="Aacute" unicode="&#xe7;" horiz-adv-x="819" 
d="M240 514q0 27 21 38q22 11 77 11q161 0 221 56q52 48 52 116q0 38 -22.5 75t-67.5 60t-107 23q-90 0 -138.5 -31.5t-89.5 -81t-61 -49.5q-41 0 -55 68q-4 21 -4 37q0 43 31 63q124 84 329 84q142 0 243 -69.5t101 -180.5q0 -79 -53.5 -134t-138.5 -77q100 -17 168.5 -83
t68.5 -162q0 -66 -35 -125.5t-90 -98.5q-115 -79 -294 -79q-113 0 -218 56t-153 150q-10 24 -10 43q0 46 36 46q34 0 52 -16q17 -15 47 -68t96 -87t141 -34q72 0 132 23q61 23 97.5 69.5t36.5 114.5q0 93 -59 147q-61 53 -168 53h-121q-65 0 -65 43z" />
    <glyph glyph-name="Edieresis" unicode="&#xe8;" horiz-adv-x="1147" 
d="M844 695l-528 -508v-39q0 -29 21.5 -43.5t41.5 -14.5q41 -14 41 -43q0 -21 -15 -34t-38 -13h-227q-47 0 -65 9q-17 9 -17 38q0 27 36 41q21 0 44.5 14.5t23.5 45.5v673q0 31 -23 45q-24 15 -45 15q-36 15 -36 41q0 29 17 38q18 9 65 9h227q22 0 37.5 -13t15.5 -34
q0 -28 -41 -43q-19 0 -41 -15q-22 -14 -22 -43v-507l528 507q0 48 -66 62q-34 9 -34 39t16.5 38.5t60.5 8.5h226q20 0 35.5 -13t15.5 -34q0 -25 -37 -43q-9 -4 -24.5 -10t-27 -17t-11.5 -31v-673q0 -15 6.5 -24.5t17.5 -16.5q12 -8 21 -11l18 -6q37 -10 37 -43
q0 -21 -15 -34t-36 -13h-226q-37 0 -57 8.5t-20 38.5q0 17 10 28q10 12 24 13q22 3 44 17t22 43v547z" />
    <glyph glyph-name="Egrave" unicode="&#xe9;" horiz-adv-x="1147" 
d="M867 1323q0 -61 -52 -125q-84 -106 -229 -106q-125 0 -211 72q-37 30 -67.5 75t-30.5 84q0 19 12 33t31 14q17 0 34 -24.5t46.5 -63t74 -62.5t113.5 -24q49 0 100 29t80 72q21 34 32.5 48.5t33.5 14.5q33 0 33 -37zM844 695l-528 -508v-39q0 -29 21.5 -43.5t41.5 -14.5
q41 -14 41 -43q0 -21 -15 -34t-38 -13h-227q-47 0 -65 9q-17 9 -17 38q0 27 36 41q21 0 44.5 14.5t23.5 45.5v673q0 31 -23 45q-24 15 -45 15q-36 15 -36 41q0 29 17 38q18 9 65 9h227q22 0 37.5 -13t15.5 -34q0 -28 -41 -43q-19 0 -41 -15q-22 -14 -22 -43v-507l528 507
q0 48 -66 62q-34 9 -34 39t16.5 38.5t60.5 8.5h226q20 0 35.5 -13t15.5 -34q0 -25 -37 -43q-9 -4 -24.5 -10t-27 -17t-11.5 -31v-673q0 -15 6.5 -24.5t17.5 -16.5q12 -8 21 -11l18 -6q37 -10 37 -43q0 -21 -15 -34t-36 -13h-226q-37 0 -57 8.5t-20 38.5q0 17 10 28
q10 12 24 13q22 3 44 17t22 43v547z" />
    <glyph glyph-name="Iacute" unicode="&#xea;" horiz-adv-x="1024" 
d="M312 477q364 282 364 373q0 24 -31 47q-28 22 -28 41q0 31 49 31h239q27 0 40.5 -5.5t13.5 -27.5q0 -33 -47 -53q-32 -14 -56 -30q-23 -15 -43 -34q-20 -18 -45 -45l-45 -49l-102 -104l-27 -27q191 -179 344 -440q16 -29 26 -39t34 -23q36 -18 36 -47t-10.5 -37t-40.5 -8
h-233q-58 0 -58 41q0 16 9 26t26.5 20t25 17t7.5 21q0 58 -101 186.5t-171 190.5l-176 -143v-105q0 -100 14 -131q17 -31 49 -31q37 -20 37 -45q0 -21 -15.5 -34t-37.5 -13h-236q-33 0 -51.5 9.5t-18.5 37.5q0 29 37 43q34 0 54 29q13 19 13 86v49v461q0 111 -13 135
q-22 29 -54 29q-37 15 -37 43q0 47 70 47h236q22 0 37 -13q16 -13 16 -34q0 -24 -37 -45q-32 0 -49 -31q-14 -31 -14 -131v-238z" />
    <glyph glyph-name="Icircumflex" unicode="&#xeb;" horiz-adv-x="1024" 
d="M299 879q-51 8 -51 47q3 43 66 43h596q57 0 57 -43q0 -34 -43 -49q-29 -10 -43 -21.5t-14 -36.5v-669q0 -26 11 -34.5t46 -23.5q43 -17 43 -49q0 -20 -17 -31.5t-42 -11.5h-234q-32 0 -48 9q-15 9 -15 34q0 20 10 30q11 9 35 15q56 17 56 62v665q0 58 -60 58h-105
q-54 0 -86 -47q-73 -104 -134 -244t-96.5 -262t-35.5 -168q0 -24 11 -35q12 -11 36 -22q25 -10 36 -20.5t11 -33.5q0 -19 -20 -30t-39 -11h-187q-15 0 -31 10.5t-16 32.5q0 24 29 43q23 15 28 37q42 149 80 254q38 106 84.5 206t116.5 234q8 17 8 25q0 29 -43 37z" />
    <glyph glyph-name="Idieresis" unicode="&#xec;" horiz-adv-x="1270" 
d="M912 905q15 36 27.5 50t43.5 14h178q19 0 35.5 -12t16.5 -37q0 -10 -5 -18q-4 -7 -11 -12q-7 -4 -18 -9q-11 -4 -15 -6q-30 -13 -41 -22t-11 -40v-663q0 -37 45 -53q31 -12 43.5 -19.5t12.5 -34.5q0 -43 -66 -43h-237q-60 0 -60 41q0 40 39 47q69 13 69 62v610l-280 -573
q-4 -11 -11.5 -26.5t-19 -26.5t-28.5 -11q-43 0 -74 68l-279 569v-600q0 -34 14 -47t44 -23q29 -8 43 -16.5t14 -32.5q0 -41 -51 -41h-209q-33 0 -48 7.5t-15 35.5q0 34 43 45q34 12 48.5 22.5t14.5 49.5v653q0 34 -13.5 46.5t-40.5 19t-40 14.5q-12 7 -12 33
q0 24 10.5 33.5t40.5 9.5h178q37 0 52.5 -13.5t37.5 -62.5l264 -553z" />
    <glyph glyph-name="Igrave" unicode="&#xed;" horiz-adv-x="1147" 
d="M844 471h-528v-323q0 -29 21.5 -43.5t41.5 -14.5q41 -14 41 -43q0 -21 -15 -34t-38 -13h-240q-41 0 -55 9t-14 38q0 27 36 41q21 0 44.5 14.5t23.5 45.5v673q0 31 -23 45q-24 15 -45 15q-36 15 -36 41q0 29 17 38q18 9 65 9h227q22 0 37.5 -13t15.5 -34q0 -28 -41 -43
q-19 0 -41 -15q-22 -14 -22 -43v-260h528v260q0 30 -23 45t-43 15q-34 14 -34 41q0 30 16 38q15 9 61 9h226q20 0 35.5 -13t15.5 -34q0 -25 -37 -43q-9 -4 -24.5 -10t-27 -17t-11.5 -31v-673q0 -15 6.5 -24.5t17.5 -16.5q12 -8 21 -11l18 -6q37 -10 37 -43q0 -21 -15 -34
t-36 -13h-226q-37 0 -57 8.5t-20 38.5q0 27 34 41q20 0 43 15t23 45v323z" />
    <glyph glyph-name="Oacute" unicode="&#xee;" horiz-adv-x="1147" 
d="M1084 484q0 -144 -69 -262q-68 -118 -188 -185t-262 -67q-136 0 -252 68q-115 68 -182.5 184t-67.5 253q0 135 70.5 253t189 186.5t253.5 68.5t252.5 -66.5t186.5 -182t69 -250.5zM834 203q85 111 85 283q0 107 -40 198t-119 144.5t-188 53.5q-114 0 -191.5 -57.5
t-114.5 -152.5q-38 -94 -38 -205q0 -168 89 -282.5t251 -114.5q77 0 148 36q70 34 118 97z" />
    <glyph glyph-name="Ocircumflex" unicode="&#xef;" horiz-adv-x="1147" 
d="M379 879q-19 0 -41 -15q-22 -14 -22 -43v-673q0 -29 21.5 -43.5t41.5 -14.5q41 -14 41 -43q0 -21 -15 -34t-38 -13h-227q-47 0 -65 9q-17 9 -17 38q0 27 36 41q21 0 44.5 14.5t23.5 45.5v673q0 31 -23 45q-24 15 -45 15q-36 15 -36 41q0 29 17 38q18 9 65 9h907
q20 0 35.5 -13t15.5 -34q0 -25 -37 -43q-9 -4 -24.5 -10t-27 -17t-11.5 -31v-673q0 -20 11 -31t24.5 -16t27.5 -11q37 -18 37 -43q0 -21 -15 -34t-36 -13h-226q-46 0 -61.5 9t-15.5 38q0 27 34 41q20 0 43 15t23 45v673q0 30 -23 45t-43 15q-5 0 -197 -1q-193 -1 -202 -1z
" />
    <glyph glyph-name="apple" unicode="&#xf0;" horiz-adv-x="1188" 
d="M348 -152q0 -100 15 -131q7 -14 49 -33q39 -15 39 -43q0 -27 -11.5 -35t-39.5 -8h-246q-33 0 -45 7t-12 36q0 26 32 43q40 0 52.5 39.5t12.5 104.5v832q0 84 -14 124q-16 41 -71 48l-17.5 2.5t-20 5.5t-15 10t-5.5 17q0 36 69.5 76t109.5 40q30 0 50.5 -16.5t32 -42.5
t20 -61l13.5 -56q78 88 157 132t183 44q191 0 320 -145q117 -134 117 -346q0 -227 -117 -361q-66 -76 -163 -118.5t-198 -42.5q-61 0 -148 28q-87 29 -87 78q0 17 10 32q11 15 27 15q17 0 43 -14q73 -35 168 -35q63 0 124.5 33.5t98.5 85.5q77 112 77 282q0 164 -72.5 276.5
t-227.5 112.5q-128 0 -217 -79q-53 -48 -73 -103t-20 -133v-701z" />
    <glyph glyph-name="Ograve" unicode="&#xf1;" horiz-adv-x="942" 
d="M514 882q-65 0 -122 -37t-93 -97q-37 -59 -56 -142q-20 -82 -20 -157q0 -93 38 -176.5t110.5 -134t167.5 -50.5q71 0 140 29.5t114 83.5q20 24 32 36q13 11 33 11q35 0 35 -37q0 -48 -80 -123q-132 -119 -301 -119q-138 0 -241 65q-103 63 -157.5 174t-54.5 247
q0 107 37 203q37 97 103 170q67 73 158 114q92 41 200 41q127 0 226 -67q82 -53 82 -125q0 -30 -21 -55t-49 -25q-23 0 -37 7q-14 8 -26 22.5l-25 31.5q-46 61 -85 85q-39 25 -108 25z" />
    <glyph glyph-name="Uacute" unicode="&#xf2;" horiz-adv-x="883" 
d="M580 90q22 0 37.5 -11.5t15.5 -35.5q0 -43 -63 -43h-256q-33 0 -48.5 8.5t-15.5 34.5q0 22 15 33.5t36 11.5q63 0 63 66v655q0 49 -5 57q-7 9 -41 9q-76 0 -128 -15q-51 -15 -104 -59l-12 -12q-7 -7 -17 -13q-9 -6 -22 -6q-20 0 -31.5 14t-11.5 31q0 38 15.5 96t54.5 58
h757q42 0 57 -57t15 -97q0 -15 -10.5 -28t-28.5 -13q-11 0 -20 4t-16.5 10.5l-16.5 14.5q-59 48 -110 60q-50 12 -121 12q-37 0 -43.5 -10t-6.5 -64v-647q0 -33 20 -48.5t42 -15.5z" />
    <glyph glyph-name="Ucircumflex" unicode="&#xf3;" horiz-adv-x="983" 
d="M100 776q-6 46 -13.5 70.5t-33.5 42.5l-17 13.5t-12.5 13t-5.5 16.5q0 23 14 30q12 7 40 7h217q47 0 47 -33q0 -19 -26 -41t-40 -44t-14 -77q0 -40 13 -113t33 -152t34 -118q43 -109 103 -174q61 -71 118 -71q99 0 164 202q34 94 61 207t27 193q0 78 -17.5 102.5
t-49.5 42.5q-31 17 -31 45q0 20 11 25q10 6 34 6h180q45 0 45 -29q0 -16 -6 -28q-33 -63 -39 -107l-28 -174q-25 -150 -89 -324t-143 -320q-88 -159 -218 -283t-275 -124q-46 0 -80 21t-34 63q0 29 22 51q21 23 51 23q18 0 54.5 -8.5t55.5 -8.5q63 0 135 57.5t128.5 137.5
t76.5 144q-60 -21 -94 -21q-81 0 -150.5 65t-113.5 152q-87 171 -122 422z" />
    <glyph glyph-name="Ugrave" unicode="&#xf4;" horiz-adv-x="1680" 
d="M764 90q-43 -47 -121 -83q-77 -37 -135 -37q-128 0 -228 68q-99 67 -154 186t-55 268q0 98 29 186t82.5 157.5t126.5 108.5t158 39t165 -44q81 -45 134 -132l-2 336q0 84 -15 124.5t-71 47.5q-57 0 -57 35q0 36 69 76.5t109 40.5q58 0 87.5 -57t29.5 -120v-483
q53 87 133.5 131.5t165.5 44.5q112 0 203 -67.5t141.5 -181.5t50.5 -242q0 -149 -54.5 -268t-153.5 -186.5t-228 -67.5q-58 0 -135 37q-76 36 -121 83v-242q0 -100 14 -131q8 -14 49 -33q39 -15 39 -43q0 -27 -11 -35t-40 -8h-246q-33 0 -45 7t-12 36q0 25 33 43
q40 0 52.5 39.5t12.5 104.5v262zM764 549q0 81 -30.5 153t-91.5 118q-61 44 -146 44q-87 0 -145 -54q-59 -56 -86 -144q-29 -89 -29 -191q0 -95 30 -188.5t88.5 -153t141.5 -59.5q114 0 180 55q67 55 88 92v328zM918 221q22 -37 88 -92t180 -55q83 0 141.5 59.5t88.5 153
t30 188.5q0 160 -66 274.5t-194 114.5q-85 0 -146 -44q-61 -46 -91.5 -118t-30.5 -153v-328z" />
    <glyph glyph-name="dotlessi" unicode="&#xf5;" horiz-adv-x="1024" 
d="M180 750q-37 55 -61.5 84t-63.5 49q-22 13 -29.5 22t-7.5 31t12 27q11 6 38 6h239q26 0 37 -6t11 -29q0 -18 -25 -39.5t-25 -38.5q0 -19 23.5 -55.5t55.5 -74.5t75 -84t49 -54q60 63 124 146q65 83 65 122q0 14 -8 21t-25 17.5t-24 18.5t-7 23q0 33 53 33h189
q28 0 39.5 -6t11.5 -29q0 -25 -32 -43q-36 -19 -48.5 -29.5t-35.5 -44.5l-238 -297l232 -272q71 -94 102 -121q14 -14 68 -39q34 -17 34 -45q0 -43 -57 -43h-246q-27 0 -39 7.5t-12 31.5q0 12 6 22q7 9 20 21t19 19.5t6 19.5q0 29 -68 106l-135 146l-35 37
q-64 -67 -130 -151.5t-66 -123.5q0 -19 9 -30q9 -10 28 -21q18 -10 28 -20q10 -9 10 -27q0 -37 -55 -37h-231q-26 0 -34 8q-10 7 -10 35q0 29 37 43q43 22 54 31t42 53l255 309z" />
    <glyph glyph-name="circumflex" unicode="&#xf6;" horiz-adv-x="1147" 
d="M140 0q-47 0 -65 9q-17 8 -17 38q0 27 36 41q21 0 44.5 14.5t23.5 45.5v673q0 31 -23 45q-24 15 -45 15q-36 15 -36 41q0 29 17 38q18 9 65 9h227q53 0 53 -47q0 -28 -41 -43q-19 0 -41 -15q-22 -14 -22 -43v-673q0 -58 63 -58h399q66 0 66 58v673q0 30 -23 45t-43 15
q-34 14 -34 41q0 30 16.5 38.5t60.5 8.5h226q51 0 51 -47q0 -25 -37 -43q-9 -4 -24.5 -10t-27 -17t-11.5 -31v-673q0 -22 15 -33.5t40.5 -21.5t28.5 -13q21 -21 30 -66q9 -47 9 -74q0 -15 -11 -28t-28 -13q-12 0 -22.5 5t-18.5 12q-7 6 -15 12q-51 39 -100 55
q-50 17 -121 17h-665z" />
    <glyph glyph-name="tilde" unicode="&#xf7;" horiz-adv-x="1024" 
d="M103 846q0 27 -31 33q-53 9 -53 47q0 43 63 43h191q63 0 63 -43q0 -21 -9 -28.5t-32 -16.5q-37 -16 -41 -62q-5 -29 -12.5 -92t-7.5 -127q0 -155 221 -155q73 0 148 25t109 42v309q0 43 -46 56q-27 8 -40 17t-13 32q0 28 17 35q17 8 50 8h223q64 0 64 -43q0 -34 -45 -51
l-20 -7.5t-17 -8.5t-13 -15t-5 -25v-671q0 -37 51 -54q49 -13 49 -51q0 -43 -64 -43h-229q-63 0 -63 43q0 38 45 47q56 12 56 60v271q-41 -20 -128 -50q-89 -31 -178 -31q-324 0 -324 260q0 66 8 138.5t13 107.5z" />
    <glyph glyph-name="macron" unicode="&#xf8;" horiz-adv-x="1475" 
d="M606 90q18 0 36.5 16t18.5 42v673q0 30 -23 45t-42 15q-35 14 -35 41q0 30 16 38q16 9 62 9h226q20 0 35.5 -13t15.5 -34q0 -24 -37 -43q-9 -4 -25 -10t-27.5 -17t-11.5 -31v-673q0 -20 11 -31t25 -16t28 -11h133q60 -1 86 -2q20 0 42.5 15t22.5 45v673q0 30 -23 45
t-42 15q-35 14 -35 41q0 30 16 38q16 9 62 9h225q21 0 36 -13t15 -34q0 -25 -36 -43q-9 -4 -25 -10t-27.5 -17t-11.5 -31v-673q0 -20 11 -31t25 -16t28 -11q36 -18 36 -43q0 -21 -15 -34t-36 -13h-1226q-47 0 -65 9q-17 9 -17 38q0 27 36 41q21 0 44.5 14.5t23.5 45.5v673
q0 31 -23 45q-24 15 -45 15q-36 15 -36 41q0 29 17 38q18 9 65 9h227q22 0 37.5 -13t15.5 -34q0 -28 -41 -43q-19 0 -41 -15q-22 -14 -22 -43v-673q0 -28 23 -43q24 -15 44 -15h223z" />
    <glyph glyph-name="breve" unicode="&#xf9;" horiz-adv-x="1475" 
d="M140 0q-47 0 -65 9q-17 9 -17 38q0 27 36 41q21 0 44.5 14.5t23.5 45.5v673q0 31 -23 45q-24 15 -45 15q-36 15 -36 41q0 29 17 38q18 9 65 9h227q22 0 37.5 -13t15.5 -34q0 -28 -41 -43q-19 0 -41 -15q-22 -14 -22 -43v-673q0 -58 63 -58h227q55 0 55 58v673
q0 30 -23 45t-42 15q-35 14 -35 41q0 30 16 38q16 9 62 9h226q20 0 35.5 -13t15.5 -34q0 -24 -37 -43q-9 -4 -25 -10t-27.5 -17t-11.5 -31v-673q0 -33 14 -45.5t50 -12.5h219q65 0 65 58v673q0 30 -23 45t-42 15q-35 14 -35 41q0 30 16 38q16 9 62 9h225q21 0 36 -13t15 -34
q0 -25 -36 -43q-9 -4 -25 -10t-27.5 -17t-11.5 -31v-673q0 -22 15 -33.5t40.5 -21.5t28.5 -13q21 -21 30 -67.5t9 -72.5q0 -15 -11 -28q-10 -13 -28 -13q-11 0 -22 5t-18.5 11.5l-14.5 12.5q-51 39 -101 55q-50 17 -120 17h-985z" />
    <glyph glyph-name="dotaccent" unicode="&#xfa;" horiz-adv-x="1024" 
d="M242 875q-94 0 -176 -74q-2 0 -19 -15.5t-32 -15.5q-21 0 -32.5 14t-11.5 31q11 66 27 110t53 44h422q66 0 66 -43q0 -51 -57 -51q-16 0 -32 -15q-16 -14 -16 -43v-208q223 0 365 -66q95 -42 158 -115.5t63 -167.5q0 -150 -145 -215q-95 -45 -256 -45h-381q-62 0 -62 43
q0 24 17.5 34.5t36.5 10.5q23 0 36 19q14 18 14 43v669q0 56 -38 56zM434 514v-334q0 -32 4.5 -45t22.5 -24q27 -14 119 -14q124 0 186 36q83 51 83 142q0 82 -64 136.5t-160.5 78.5t-190.5 24z" />
    <glyph glyph-name="ring" unicode="&#xfb;" horiz-adv-x="1352" 
d="M1190 148q0 -30 21.5 -44t42.5 -14q41 -14 41 -43q0 -21 -15.5 -34t-38.5 -13h-227q-47 0 -64.5 9t-17.5 38q0 27 37 41q20 0 43.5 14.5t23.5 45.5v673q0 31 -23 45q-24 15 -44 15q-37 15 -37 41q0 29 17.5 38t64.5 9h227q23 0 38 -13q16 -13 16 -34q0 -28 -41 -43
q-20 0 -42 -15q-22 -14 -22 -43v-673zM316 817v-208q223 0 365 -66q94 -42 157 -115.5t63 -167.5q0 -72 -38.5 -128t-106.5 -87q-94 -45 -256 -45h-381q-61 0 -61 43q0 34 53 45q51 10 51 62v669q0 50 -57 60q-47 9 -47 47q0 43 59 43h238q65 0 65 -43q0 -28 -13 -35.5
t-44 -15.5q-47 -12 -47 -58zM316 514v-334q0 -32 3.5 -44.5t22.5 -24.5q27 -14 119 -14q124 0 186 36q83 51 83 142q0 82 -63 137q-65 54 -160 78q-97 24 -191 24z" />
    <glyph glyph-name="cedilla" unicode="&#xfc;" horiz-adv-x="901" 
d="M316 817v-208q223 0 365 -66q94 -42 157 -115.5t63 -167.5q0 -72 -38.5 -128t-106.5 -87q-94 -45 -256 -45h-381q-61 0 -61 43q0 34 53 45q51 10 51 62v669q0 50 -57 60q-47 9 -47 47q0 43 59 43h238q65 0 65 -43q0 -28 -13 -35.5t-44 -15.5q-47 -12 -47 -58zM316 514
v-334q0 -32 3.5 -44.5t22.5 -24.5q27 -14 119 -14q124 0 186 36q83 51 83 142q0 82 -63 137q-65 54 -160 78q-97 24 -191 24z" />
    <glyph glyph-name="hungarumlaut" unicode="&#xfd;" horiz-adv-x="942" 
d="M713 563q0 32 -20 85q-20 54 -50 100q-36 60 -92.5 97t-122.5 37q-128 0 -192 -110q-29 -49 -68 -49q-46 0 -65 72q-4 17 -4 29q0 55 38 81q109 78 248 78q109 0 201 -41t158 -114q67 -73 103 -170q36 -96 36 -203q0 -136 -54 -247t-157 -174q-103 -65 -242 -65
q-169 0 -301 119q-80 75 -80 123q0 37 35 37q21 0 35 -13q15 -13 31 -34q46 -55 114 -84t140 -29q95 0 166.5 49t110.5 136.5t39 197.5h-398q-49 0 -49 45q0 18 13.5 32.5t35.5 14.5h391z" />
    <glyph glyph-name="ogonek" unicode="&#xfe;" horiz-adv-x="1557" 
d="M480 563q21 118 93.5 214t181.5 151t230 55q136 0 253 -66q118 -67 186.5 -182.5t68.5 -250.5q0 -144 -68.5 -262t-187.5 -185t-262 -67q-102 0 -193 38.5t-161 108.5t-109 161t-39 193h-157v-323q0 -29 21.5 -43.5t41.5 -14.5q41 -14 41 -43q0 -21 -15 -34
q-15 -12 -38 -12h-227q-47 0 -65 8q-17 9 -17 38q0 27 36 41q21 0 44.5 14.5t23.5 45.5v673q0 31 -23 45q-24 15 -45 15q-36 15 -36 41q0 29 17 38q18 9 65 9h227q22 0 37.5 -13t15.5 -34q0 -28 -41 -43q-19 0 -41 -15q-22 -14 -22 -43v-258h164zM1243 203q85 111 85 283
q0 168 -91.5 282t-255.5 114q-113 0 -191 -57.5t-115 -152.5q-38 -94 -38 -205q0 -168 89 -282.5t251 -114.5q78 0 149 36q70 34 117 97z" />
    <glyph glyph-name="caron" unicode="&#xff;" horiz-adv-x="1024" 
d="M482 439q-29 -29 -77.5 -100.5t-85 -138.5t-36.5 -85q0 -12 21 -21t33 -18q13 -9 18 -35q0 -41 -70 -41h-213q-62 0 -62 41q0 23 16 33t30 10q11 2 31 21t34 49q79 157 203 325q-216 100 -216 261q0 114 109 182q78 47 215 47h469q64 0 64 -43q0 -34 -55 -53
q-24 -11 -36 -19.5t-12 -32.5v-671q0 -24 13.5 -34.5t44.5 -23.5q43 -17 43 -49q0 -43 -64 -43h-223q-34 0 -51 8q-16 7 -16 35q0 34 45 47q54 18 54 56v260zM690 858q-18 15 -137 15q-274 0 -274 -150q0 -75 69 -120.5t154 -65t206 -37.5v291q0 59 -18 67z" />
  </font>
</defs>
</svg>
